<?xml version="1.0" encoding="utf-8"?>
<!-- Generator: Adobe Illustrator 24.1.2, SVG Export Plug-In . SVG Version: 6.00 Build 0)  -->
<svg version="1.1" id="Lager_1" xmlns="http://www.w3.org/2000/svg" xmlns:xlink="http://www.w3.org/1999/xlink" x="0px" y="0px"
	 width="2000px" height="420px" viewBox="0 0 2000 420" style="enable-background:new 0 0 2000 420;" xml:space="preserve">
<style type="text/css">
	.st0{fill-rule:evenodd;clip-rule:evenodd;fill:#FFFFFF;}
	.st1{fill-rule:evenodd;clip-rule:evenodd;fill:url(#Fill-1_2_);}
	.st2{opacity:0.5;fill-rule:evenodd;clip-rule:evenodd;fill:#FFFFFF;}
	.st3{fill:#69C585;}
	.st4{fill:#8AD3E2;}
	.st5{fill:#000A54;}
	.st6{opacity:0.4862;fill:#8181C2;}
	.st7{opacity:0.3972;fill:#5472B2;}
	.st8{opacity:0.3615;fill:#545BB2;}
	.st9{fill:#003954;}
	.st10{fill:#0E0054;}
	.st11{fill:none;}
	.st12{opacity:0.3;fill-rule:evenodd;clip-rule:evenodd;fill:url(#Oval-Copy-4_2_);}
	.st13{opacity:0.3;fill-rule:evenodd;clip-rule:evenodd;fill:url(#Oval-Copy-4_3_);}
	.st14{opacity:0.5586;fill:#545BB2;}
	.st15{opacity:0.3415;fill:#5484B2;}
	.st16{opacity:0.3;fill-rule:evenodd;clip-rule:evenodd;fill:url(#Oval-Copy_2_);}
	.st17{opacity:0.3;fill-rule:evenodd;clip-rule:evenodd;fill:url(#Oval-Copy_3_);}
	.st18{opacity:0.3;fill-rule:evenodd;clip-rule:evenodd;fill:url(#Oval-Copy-9_1_);}
</style>
<g id="Artboard-Copy">
	<g id="Group-354">
		<polygon id="Fill-1" class="st0" points="1,420 2032,420 2032,0 1,0 		"/>
		
			<linearGradient id="Fill-1_2_" gradientUnits="userSpaceOnUse" x1="699.6555" y1="510.2881" x2="700.6555" y2="510.2881" gradientTransform="matrix(2032 0 0 -420 -1421700 214531)">
			<stop  offset="0" style="stop-color:#D6EBD8"/>
			<stop  offset="0.2035" style="stop-color:#C9E7E3"/>
			<stop  offset="0.5686" style="stop-color:#B8E2F2"/>
			<stop  offset="0.8253" style="stop-color:#96B4DC;stop-opacity:0.8718"/>
			<stop  offset="1" style="stop-color:#545BB2;stop-opacity:0.6228"/>
		</linearGradient>
		<polygon id="Fill-1_1_" class="st1" points="0,420 2032,420 2032,0 0,0 		"/>
	</g>
	<path id="Path-4-Copy" class="st2" d="M1806.2,591.7c69.8-6.8,199.8-11.7,199.8,36.3c0,2.3,0-402.3,0-402.8s-26.2-46.6-85.5-92.6
		c-52-40.3-127.3-61.9-188.3-79.7c-72.9-21.3-122.4-33.5-216.5-46.1c-11.8-1.6-22.3-1.9-33.8-6.7c-0.3-0.1-405.3,0-405.3,0
		c60.3,13.1,137.3,90.4,76.8,163.9c-111.1,135.1,76.5,184,26.2,228.6c-50.3,44.6-296.4,220.6-29.8,300S1657.7,606,1806.2,591.7z"/>
	<g id="Toppillustration" transform="translate(155.000000, 23.000000)">
		<g id="Group-19">
			<path id="Path-Copy-2" class="st3" d="M131.7,62.9c-8.5,6.3-12.4,16.8-10.2,27c0.7,3.3,5.9,1.9,5.2-1.4
				c-1.8-8.4,1.1-16.9,6.8-23.3C134.5,64,133.1,61.8,131.7,62.9L131.7,62.9z"/>
			<g id="Group-13" transform="translate(248.309859, 2.157804)">
				<path id="Path" class="st3" d="M6,5.5c10.9,2.1,23.1,0.4,33.8-2.3C42,2.7,41-0.4,38.9,0c-5.5,1.2-11.1,2.1-16.7,2.7
					c-5.3,0.6-10.7,0.6-16,1.1C5.4,4,5,5.3,6,5.5L6,5.5z"/>
				<g id="Group-4" transform="translate(0.000000, 14.025729)">
					<path id="Path_1_" class="st3" d="M1.4,0.3c-2,3.9-1.3,9.1-1,13.2c0.4,4.9,1.4,9.7,3,14.3c0.6,1.8,3.6,1.1,3.1-0.8
						C5,22.4,4,17.7,3.5,12.9c-0.4-4,0.4-8.6-0.8-12.4C2.6,0.2,2.3,0,2.1,0S1.5,0.1,1.4,0.3L1.4,0.3z"/>
					<path id="Path_2_" class="st4" d="M115.8,194.8c15.4,6.7,36.8,5.9,47.4-8.7c10.6-14.7,7.6-37.6-3.5-51.2
						c-21.4-26.4-70.7-15.5-72.7,20.4c-1.1,18.9,13.1,33.9,29.6,40.6c5.1,2.1,8.9-6.7,3.8-9c-11-4.9-20.9-14-22.8-26.4
						c-1.7-11.5,5.1-22.6,15.6-27.3c10.5-4.7,24.2-3.7,33.4,3.4c11.1,8.7,14.9,24.2,11,37.4c-4.8,16-25,17.9-38.6,13
						C114.6,185.4,111.3,192.8,115.8,194.8z"/>
					<path id="Path_3_" class="st5" d="M58.8,66.3c0.8,3.2,2,6.3,3.5,9.2c1.4,2.8,3.1,5.9,5.7,7.6c2.5,1.7,5.3,1.2,7.4-0.8
						c3.7-3.3,4.8-8.6,8.6-11.8c2.3-1.9,5-2.4,7.8-3.1c2.2-0.6,4.9-1.4,5.5-3.9c0.2-0.7-0.9-1.5-1.3-0.7c-1,1.8-2.9,2.4-4.7,2.9
						c-2.3,0.6-4.6,1.1-6.6,2.3c-2,1.2-3.7,3-4.9,5c-1.3,2.1-2.3,4.3-3.7,6.3c-1.6,2.2-4,4.4-6.8,2.9c-2.5-1.3-4.2-4.2-5.5-6.7
						c-1.6-3.1-2.8-6.5-4.2-9.7C59.4,65.5,58.6,65.7,58.8,66.3L58.8,66.3z"/>
					<path id="Path_4_" class="st5" d="M59.4,64.9c-0.2,0.1-0.3,0.1-0.5,0.2c-0.2,0.1-0.3,0.3-0.4,0.4c-0.3,0.3-0.7,0.6-1,0.9
						c-0.6,0.6-1.3,1.2-2,1.7c-1.4,1-2.9,1.8-4.4,2.3c-0.7,0.3-0.4,1.8,0.4,1.5c1.7-0.6,3.3-1.5,4.7-2.7c0.7-0.6,1.3-1.2,1.9-1.9
						c0.3-0.4,0.6-0.7,0.9-1.1c0.1-0.2,0.2-0.4,0.3-0.6c0.1-0.2,0.2-0.5,0.2-0.7C59.5,65,59.4,64.9,59.4,64.9L59.4,64.9z"/>
					<path id="Path_5_" class="st5" d="M54.7,78.4c1.6,4,3.6,7.9,6,11.5c1.2,1.8,2.5,3.6,3.8,5.3c1.3,1.8,2.7,3.4,4.3,4.9
						c0.6,0.5,1.4-0.4,0.9-1c-1.4-1.6-2.9-3.1-4.3-4.7s-2.6-3.3-3.8-5.1c-2.4-3.6-4.5-7.3-6.2-11.3c-0.1-0.2-0.4-0.3-0.6-0.2
						C54.7,77.9,54.6,78.2,54.7,78.4L54.7,78.4z"/>
					<path id="Path_6_" class="st5" d="M70.3,100.2c1.7,0.2,3.7-0.5,5.3-1.1c2-0.8,3.9-1.7,5.8-2.8c3.9-2.3,7.6-4.9,10.9-7.8
						c1.8-1.4,3.4-3,4.8-4.7c0.3-0.3,0.2-0.7,0-1c-0.3-0.3-0.7-0.2-1,0c-1.9,1.6-3.6,3.4-5.6,5c-2.1,1.8-4.3,3.4-6.6,5
						c-2.2,1.5-4.6,2.9-7,4.1c-1.2,0.5-2.3,1.1-3.5,1.5c-1.1,0.4-2.2,0.6-3.2,1.1C70,99.5,70,99.7,70,99.9
						C70,100,70.1,100.2,70.3,100.2L70.3,100.2z"/>
					<path id="Path_7_" class="st5" d="M58.5,65.7c-0.8-0.6-0.3-1.9-0.1-2.7c0.2-0.9,0.3-1.9,0.1-2.8c-0.1-0.9-0.4-1.8-0.9-2.6
						c-0.4-0.8-1-1.6-1.7-2.1c-0.9-0.5-1.9,0-2.8,0.4c-0.9,0.4-1.7,0.9-2.4,1.6c-1.2,1.3-1.4,3.6,0.1,4.7c0.8,0.6,1.9,0.7,2.8,0.2
						c0.9-0.5,1.5-1.4,1.4-2.5c0-0.8-1.3-0.7-1.4,0.1c0,0.6-0.4,1.1-1,1.3c-0.6,0.1-1.2-0.1-1.5-0.6c-0.7-1.2,0.6-2.6,1.6-3.1
						c0.3-0.2,0.6-0.3,0.9-0.5c0.3-0.2,0.7-0.3,1.1-0.4c0.6-0.1,1.2,0.9,1.5,1.4c0.7,1.2,1.1,2.6,1,4c-0.1,1.4-1.1,3.4,0.5,4.4
						c0.2,0.1,0.5,0.1,0.6-0.1C58.8,66.1,58.7,65.9,58.5,65.7L58.5,65.7z"/>
					<path id="Path_8_" class="st5" d="M48.9,59.8c0.2,0.7,0.5,1.4,0.9,2c0.2,0.3,0.4,0.6,0.7,0.8c0.3,0.2,0.5,0.5,0.6,0.8
						c0.4,1.4-1.3,2.4-2.5,2.9c-0.3,0.1-0.6,0.2-0.9,0.4c-0.3,0.2-0.6,0.2-0.9,0.3c-0.6,0-0.9-1-1-1.4c-0.2-0.8-0.4-1.5-0.4-2.3
						c0-0.5,0.1-1,0.4-1.5c0.7-1.1,2.1-1.4,3.4-1.6c0.2,0,0.4-0.2,0.4-0.4c0-0.2-0.2-0.4-0.4-0.4c-1.6-0.1-3.2,0.5-4.2,1.6
						c-1.1,1.3-0.9,3-0.5,4.5c0.1,0.9,0.6,1.7,1.3,2.4c0.7,0.4,1.6,0.4,2.4,0c1.6-0.6,3.6-1.6,4-3.2c0.3-0.9-0.1-1.8-0.8-2.4
						c-0.5-0.3-0.9-0.7-1.2-1.1c-0.3-0.4-0.6-0.9-0.8-1.4C49.2,59.5,48.8,59.6,48.9,59.8z"/>
					<path id="Path_9_" class="st5" d="M53.9,62.8c-0.1,9.3,0,18.7,0.4,28.1c0,0.7,1.2,0.6,1.1,0c-0.4-9.4-0.4-18.7-1-28.1
						C54.5,62.4,53.9,62.5,53.9,62.8L53.9,62.8z"/>
					<path id="Path_10_" class="st5" d="M52.3,34.8c0.2,6.6,0.3,13.3,0.5,19.9c0,0.8,1.2,0.9,1.1,0.1c-0.1-6.7-0.2-13.4-1-20
						C52.8,34.4,52.3,34.4,52.3,34.8L52.3,34.8z"/>
					<path id="Path_11_" class="st5" d="M49.9,68.4c0.1,7.4,0.3,14.9,0.3,22.3c0,0.8,1.3,0.9,1.3,0.1c0.1-7.5-0.4-15-1-22.4
						C50.5,68,49.9,68.1,49.9,68.4L49.9,68.4z"/>
					<path id="Path_12_" class="st5" d="M48.3,35.6c0.2,6.9,0.4,13.9,0.8,20.8c0.1,0.7,1.5,0.7,1.5,0c-0.3-6.9-0.9-13.9-1.7-20.8
						C49,35.2,48.2,35.2,48.3,35.6L48.3,35.6z"/>
					<path id="Path_13_" class="st5" d="M50.8,90.6L50.8,90.6L50.8,90.6c0.1,0.2,0.3,0.3,0.4,0.4c0.1,0.1,0.3,0.2,0.5,0.2
						c0.2,0.1,0.5,0.2,0.8,0.2c0.2,0,0.4,0,0.6,0c0.4,0,0.8,0,1.1-0.1c0.3-0.1,0.5-0.4,0.5-0.8c0-0.4-0.2-0.7-0.5-0.7
						c-0.4,0-0.7,0.1-1.1,0.1h-0.2h-0.1c-0.1,0,0,0,0,0c-0.1,0-0.2,0-0.3,0h-0.7c-0.2,0-0.3,0-0.5,0c-0.2,0.1-0.4,0.1-0.5,0.3
						l0.1-0.1l-0.1,0c-0.1,0-0.1,0.1-0.1,0.2S50.7,90.5,50.8,90.6L50.8,90.6z"/>
					<path id="Path_14_" class="st5" d="M24.3,40.1c1.7,0,3.3-0.1,5-0.4l5-0.6c3.4-0.4,6.8-0.9,10.2-1.3c6.8-0.8,13.6-1.5,20.4-2.2
						l5.8-0.5c2-0.1,4-0.3,5.9-0.6c0.8-0.2,0.8-1.6-0.1-1.6c-1.7,0-3.4,0.2-5.1,0.4l-5,0.5c-3.4,0.4-6.8,0.7-10.3,1.1
						c-6.9,0.8-13.8,1.6-20.6,2.7c-1.9,0.3-3.8,0.6-5.7,0.9s-3.8,0.4-5.6,1.1c-0.1,0.1-0.2,0.2-0.1,0.3S24.2,40.1,24.3,40.1
						L24.3,40.1z"/>
					<path id="Path_15_" class="st5" d="M20.9,9.1c-0.1,10.2-0.3,20.7,2.7,30.5c0.2,0.8,1.5,0.6,1.3-0.2c-2.8-9.9-2.8-20.1-3.4-30.3
						C21.5,8.7,20.9,8.7,20.9,9.1L20.9,9.1z"/>
					<path id="Path_16_" class="st5" d="M21.1,8c6.8-0.5,13.6-1.6,20.4-2.4C48.8,4.7,56,3.9,63.2,3.2c3.7-0.3,7.4-0.6,11.1-1
						C75,2.1,75,0.8,74.2,0.8c-6.8,0.1-13.7,1-20.5,1.8c-7.2,0.9-14.4,1.9-21.6,3c-3.7,0.6-7.4,1.2-11.1,2c-0.1,0-0.1,0.1-0.1,0.2
						C20.9,8,21,8,21.1,8L21.1,8z"/>
					<path id="Path_17_" class="st5" d="M74.3,1.7C74.1,2.9,74,4.1,74,5.3c0,1.3,0,2.5,0,3.8c0,2.8,0,5.6,0.1,8.3
						c0.1,5.3,0.7,10.5,1.7,15.7c0.2,0.8,1.5,0.6,1.3-0.2c-1-5.1-1.6-10.3-1.9-15.5c-0.2-2.7-0.3-5.5-0.3-8.2c0-1.3,0-2.5,0-3.8
						C75,4.2,75,3,74.8,1.8C74.8,1.6,74.4,1.5,74.3,1.7L74.3,1.7z"/>
					<path id="Path_18_" class="st5" d="M138.3,120.9c-12-4.9-27-4.2-37.6,3.7c-11.8,8.7-16,25-14.3,39c0.8,7.2,3.5,14.1,7.7,20
						c4.5,6,10.7,10.6,17.8,13.1c6.9,2.3,14.3,2.7,21.5,1.1c7.3-1.6,14.6-5.2,19.9-10.5c5.9-5.9,9.4-14.2,11.2-22.3
						c1.1-4.7,1.5-9.5,1-14.3c-0.5-3.7-1.6-7.4-3.3-10.8c-0.7-1.6-1.6-3.2-2.5-4.6c-0.6-1-2.2-0.2-1.6,0.8c0.8,1.5,1.5,3,2.1,4.5
						c0.7,1.7,1.4,3.5,2,5.3c1.2,3.9,1.6,8,1.2,12c-0.4,4.4-1.4,8.8-3,13c-1.3,3.7-3,7.3-5.2,10.5c-4.2,6.1-10.6,10.2-17.5,12.7
						c-6.5,2.3-13.4,2.9-20.2,1.6c-6.9-1.4-13.3-4.8-18.2-9.9c-4.7-5-8-11.1-9.5-17.8c-1.6-6.8-1.7-13.9-0.3-20.7
						c1.4-6.7,4.3-13.3,9.1-18.2c4.4-4.5,10.1-7.6,16.4-8.8c6.1-1.3,12.4-0.9,18.5,0.3c1.6,0.3,3.1,0.7,4.7,1.1
						c0.2,0,0.3-0.1,0.4-0.2C138.5,121.2,138.4,121,138.3,120.9L138.3,120.9z"/>
					<path id="Path_19_" class="st5" d="M92,31.4c-0.3,0.8-0.5,1.6-0.7,2.4s-0.6,1.4-0.7,2.2c-0.3,1.5-0.5,3-0.5,4.6
						c0,2.5,0.2,5.1,1.2,7.4c0.9,2.2,2.8,3.7,5,4.1c2.6,0.3,5.1-0.5,7.1-2.1c0.7-0.5-0.1-1.8-0.8-1.4c-1.9,1.2-3.9,2.2-6.1,1.8
						c-2.1-0.3-3.4-2-4.1-4c-0.7-2.2-1-4.5-0.9-6.9c0-1.3,0.1-2.6,0.2-4c0-0.6,0-1.3,0.1-1.9c0.1-0.8,0.3-1.5,0.5-2.2
						C92.3,31.3,92.1,31.2,92,31.4L92,31.4z"/>
					<path id="Path_20_" class="st5" d="M107,25.3c3.3-3.7,8.1-5.4,13-5.3c2.3-0.1,4.6,0.5,6.7,1.5c2.3,1.3,3.1,3.4,3,5.9
						c-0.1,2.4-0.6,4.8,0.3,7.2c0.9,2,2.6,3.6,4.8,4.2c2.3,0.8,4.6,0.8,7,0.8c2.6,0.1,5.4,0.2,7.5,2c3.6,3,4.1,8.8,2.5,12.9
						c-0.7,2-2.1,3.8-3.9,4.9c-2.4,1.3-5.2,1.4-7.8,1c-2.3-0.3-4.5-1.2-5.9-3.1c-1-1.6-1.6-3.3-1.9-5.2c-0.7-3.7-0.9-7.8-3.4-10.9
						c-1.3-1.5-3-2.5-4.8-3.1c-1.8-0.6-3.9-1-5.5-2.2c-2-1.5-1.5-4.2-2.3-6.3c-0.8-2.1-2.4-3.8-4.4-4.8c-1-0.5-2.1-0.9-3.2-1
						c-1.2-0.1-1.3,1.6-0.2,1.8c2.4,0.3,4.5,1.8,5.7,4c1.2,2.2,0.6,5,2.3,7.1c2.8,3.2,8,2.4,10.7,5.6c2.6,3,2.5,7.6,3.4,11.3
						c0.4,2,1.2,3.8,2.4,5.4c1.6,2,4,2.8,6.4,3.3c2.8,0.6,5.7,0.3,8.4-0.8c2.1-1,3.9-2.6,4.9-4.7c2.2-4.3,2.2-9.4,0-13.7
						c-1.2-2.3-3.4-4.1-5.9-4.7c-2.7-0.7-5.5-0.4-8.3-0.7c-2.2-0.2-4.8-0.7-6.3-2.5c-1.7-2.1-1.1-5.1-1-7.5c0.1-2.5-0.5-4.8-2.4-6.5
						c-1.8-1.5-4.1-2.4-6.5-2.6c-4.8-0.6-10.1,0.5-13.9,3.5c-0.9,0.8-1.7,1.7-2.3,2.7c-0.1,0.2-0.1,0.4,0.1,0.6
						C106.5,25.5,106.8,25.4,107,25.3L107,25.3z"/>
					<path id="Path_21_" class="st5" d="M90.9,29.6c6-4.6,13.8-6,21-3.8c0.3,0.1,0.6,0,0.6-0.3s0-0.6-0.3-0.7
						c-7-3.1-16.4-1.4-22.1,3.9c-0.2,0.2-0.2,0.5,0,0.8C90.4,29.7,90.7,29.7,90.9,29.6L90.9,29.6z"/>
					<path id="Path_22_" class="st5" d="M110.4,47.3c0.6,0,1.1,0,1.6-0.1c0.5-0.2,1-0.4,1.5-0.7c1-0.6,1.9-1.4,2.6-2.3
						c1.5-1.9,2.3-4.3,2.1-6.8c0-0.6-0.9-0.6-1,0c-0.1,2.2-0.8,4.3-2.1,6c-0.6,0.8-1.4,1.5-2.2,2.1c-0.4,0.3-0.8,0.5-1.3,0.7
						c-0.4,0.3-0.9,0.5-1.4,0.7c-0.1,0-0.1,0.1-0.1,0.2C110.2,47.2,110.3,47.3,110.4,47.3L110.4,47.3z"/>
					<path id="Path_23_" class="st5" d="M91.2,29.6c5.5-0.2,11,3.7,12,9.1c0.1,0.5,1,0.8,1.3,0.3c0.8-1.5,3-1.5,4.2-0.4
						c1.6,1.5,0.7,4.3-0.6,5.7c-0.7,0.7,0.3,1.9,1,1.2c1.9-2.1,2.9-5.8,0.5-8c-1.9-1.7-5.1-1.4-6.3,0.9l1.3,0.1
						c-1.2-6-7.3-10.6-13.4-9.5C90.8,29.1,90.8,29.6,91.2,29.6L91.2,29.6z"/>
					<path id="Path_24_" class="st5" d="M90.5,109.7c3.7-5.2,5.6-12,6.6-18.4c1-6.7,1.2-13.6,0.7-20.4c-0.1-1.9-0.3-3.8-0.5-5.7
						c-0.1-0.9-0.2-1.9-0.3-2.8c0-0.9-0.2-1.9-0.5-2.8c-0.1-0.2-0.3-0.4-0.6-0.3c-0.2,0-0.4,0.3-0.5,0.5c-0.1,0.8,0,1.5,0.1,2.2
						c0.1,0.9,0.2,1.8,0.3,2.7c0.2,1.6,0.3,3.2,0.4,4.8c0.2,3.3,0.4,6.7,0.3,10.1c0,6.6-1,13.2-2.7,19.6c-1.1,3.5-2.4,6.9-3.9,10.3
						C90,109.8,90.4,110,90.5,109.7L90.5,109.7z"/>
					<path id="Path_25_" class="st5" d="M86.4,110.8c7.4,2.5,15.2,3.8,23,3.8c2.9,0.1,5.9,0,8.8-0.4c3.8-0.6,7.5-2.1,11-3.8
						c1.7-0.8,3.4-1.6,5.1-2.5c1.5-0.8,3.3-1.4,4.6-2.5c0.2-0.2,0.3-0.5,0.2-0.8c-0.1-0.3-0.4-0.5-0.8-0.4c-1.5,0.3-2.9,1.1-4.3,1.8
						c-1.4,0.7-2.6,1.3-3.8,1.9c-3.6,1.7-7.4,3.5-11.4,4.3c-2.7,0.5-5.5,0.7-8.3,0.6c-3.6,0-7.2-0.2-10.8-0.6
						c-4.4-0.5-8.8-1.2-13.1-2.3C86.1,109.8,85.8,110.6,86.4,110.8L86.4,110.8z"/>
					<path id="Path_26_" class="st5" d="M117,55.4c1.6,0.1,3.3-0.1,4.8,0.6c1.3,0.7,2.4,1.7,3.3,2.9c2.1,2.4,4.2,4.8,6.4,7
						c4.4,4.4,9.1,8.5,14.1,12.2c3.5,2.7,7,5.5,7.7,10.1c0.5,3,0,6.1-0.5,9.1c-0.6,3.3-1.4,6.5-2,9.7c-0.6,2.7-0.9,5.5-0.8,8.2
						c0.1,2,0,3.9-0.2,5.9c0,0.4,0.3,0.8,0.7,0.8c0.4,0,0.8-0.3,0.9-0.7c0.3-1.9,0.4-3.8,0.3-5.7c-0.1-2.2,0.1-4.4,0.5-6.6
						c1-6.5,3.5-13.1,2.9-19.8c-0.2-2.3-1-4.4-2.3-6.3c-1.3-1.8-2.9-3.3-4.8-4.7c-2.4-1.9-4.8-3.6-7.1-5.5c-2.6-2.1-5.1-4.4-7.4-6.7
						c-2.6-2.5-5.1-5.2-7.5-7.9c-1-1.2-2.2-2.2-3.6-3c-1.7-0.8-3.6-0.4-5.4-0.4C116.5,54.6,116.4,55.4,117,55.4L117,55.4z"/>
					<path id="Path_27_" class="st5" d="M116.7,73.5c1.2,2.4,2.7,4.7,4.4,6.8c1.6,2.1,3.5,4.1,5.5,5.8c3.9,3.3,8.7,5.7,13.9,6
						l-0.9-1.1c-0.7,3.9-1.1,7.9-1.2,11.9c0,1.9,0,3.8,0.1,5.8c0,2.1,0.3,4.1,0.7,6.1c0.2,0.9,1.9,1,1.8-0.1
						c-0.1-1.9-0.3-3.8-0.5-5.7c-0.1-2-0.2-4-0.1-6.1c0.1-3.9,0.5-7.9,1.2-11.8c0-0.3-0.1-0.5-0.2-0.7c-0.2-0.2-0.4-0.3-0.7-0.4
						c-4.9-0.2-9.4-2.5-13-5.6c-1.9-1.7-3.7-3.5-5.3-5.5c-1.7-1.9-3.2-4-5-5.8C117,72.8,116.5,73.1,116.7,73.5L116.7,73.5z"/>
					<path id="Path_28_" class="st5" d="M140.4,122.3L140.4,122.3C140.4,122.2,140.3,122.3,140.4,122.3z"/>
					<path id="Path_29_" class="st5" d="M139.9,112.8c0.3,2.6,1.6,5,3.5,6.7c1.8,1.7,4.3,3.2,6.9,3.2c0.8,0,1.2-1.3,0.3-1.5
						c-1.1-0.3-2.2-0.6-3.2-1.1c-1-0.5-2-1.1-2.8-1.9c-1.6-1.6-2.9-3.5-3.7-5.6C140.7,112,139.9,112.3,139.9,112.8L139.9,112.8z"/>
					<path id="Path_30_" class="st5" d="M147.2,119.6c-1.2,0.7-1.1,2.1-0.7,3.3c0.3,1.3,0.8,2.5,1.4,3.6c1.6,2.6,5.1,2.9,6.7,5.5
						c0.4,0.8,0.7,1.6,0.9,2.4c0.4,0.9,0.5,1.8,0.4,2.7c-0.3,1.5-2.7,1.6-3.9,1.2c-2.3-0.7-3.3-3.7-4.3-5.6c-1-1.7-2.3-2.8-4.4-2.3
						c-1.9,0.4-3.3,2.1-5.3,2.2l1.1,0.6c-0.3-0.7-0.3-1.4,0-2.1c0.4-0.6,1-1.1,1.7-1.3c1.4-0.7,2.3-2,2.4-3.6c0-1.8-0.2-3.6-0.6-5.3
						c-0.2-1-0.3-2-0.5-3c-0.2-1-0.5-2-0.9-2.9c-0.3-0.8-1.4-0.3-1.4,0.4c0.1,1,0.2,2,0.4,3c0.2,1,0.4,2,0.5,3c0.2,1,0.3,2,0.4,3
						c0.2,0.8,0.2,1.7-0.1,2.6c-0.3,0.7-1,1-1.7,1.4c-0.7,0.3-1.3,0.8-1.8,1.4c-0.9,1.2-1.1,2.9-0.5,4.3c0.2,0.4,0.6,0.6,1.1,0.6
						c1.8-0.1,3.1-1.4,4.7-2.1c0.8-0.3,1.6-0.4,2.3,0.2c0.5,0.6,0.9,1.4,1.3,2.1c1.2,2.2,2.4,4.7,5.1,5.4c1.5,0.4,3.1,0.2,4.5-0.5
						c1.4-0.8,1.8-2.5,1.5-4c-0.3-1.7-0.9-3.4-1.9-4.9c-1-1.3-2.4-2.3-3.9-3c-1.4-0.8-2.5-1.5-3.2-2.9s-1.8-3.3-1.2-5
						c0-0.1,0-0.2-0.1-0.2C147.4,119.5,147.3,119.5,147.2,119.6L147.2,119.6z"/>
					<path id="Path_31_" class="st5" d="M65.3,141.8c3.7,1,7.5,1.5,11.3,1.6c3.8,0.2,7.6,0,11.4-0.7c0.3-0.1,0.5-0.4,0.5-0.8
						c-0.1-0.4-0.4-0.7-0.7-0.6c-7.4,1-14.9,0.6-22.3-0.2C65.1,141.1,65,141.7,65.3,141.8L65.3,141.8z"/>
					<path id="Path_32_" class="st5" d="M64.8,142c-0.9-2.4-2.7-6,0.5-7.6c1.2-0.5,2.4-0.8,3.7-0.8c1.7-0.2,3.5-0.3,5.3-0.4
						c7.2-0.5,14.5-1,21.7-1.8c1-0.1,0.7-1.5-0.3-1.5c-6.4,0.4-12.7,0.9-19,1.5c-2.9,0.3-5.9,0.4-8.8,0.8c-2.1,0.3-4.4,1-5.4,3
						c-1.2,2.4,0,5.3,1.5,7.3C64.3,143,65,142.5,64.8,142L64.8,142z"/>
					<path id="Path_33_" class="st5" d="M77.2,171.1c-2.2-6.2-3.2-12.8-5.6-19c-2-5.1-5.1-10.4-10-13.3c-0.4-0.2-0.8-0.1-1.1,0.2
						c-0.2,0.3-0.2,0.8,0.1,1.1c4.7,3.4,7.6,8,9.8,13.2c2.4,5.9,3.7,12.2,6.3,18.1C76.8,171.7,77.3,171.5,77.2,171.1L77.2,171.1z"/>
					<path id="Path_34_" class="st5" d="M96.2,113.9c-7.1,2-14.2,4.2-21.3,6.4c-3.5,1.1-7,2.2-10.5,3.3c-3.7,1.2-7.4,2.3-11.1,3.6
						c-2.9,1.1-6.1,2.6-7.7,5.3c-1.2,2.3-1.7,4.9-1.2,7.4c0.7,5.6,3.7,10.8,6.5,15.6c4.5,7.4,10.1,13.9,15.4,20.6
						c0.5,0.6,1.4-0.2,0.9-0.8c-4.4-6-9.2-11.7-13.2-17.8c-1.6-2.5-3.1-5.1-4.5-7.7c-1.3-2.4-2.4-5-3.1-7.6c-0.6-2.4-1-5.1-0.1-7.5
						c1.1-2.9,3.9-4.5,6.7-5.7c3.4-1.4,7-2.4,10.5-3.5c3.3-1.1,6.6-2.2,9.9-3.3c7.6-2.5,15.3-5,22.8-7.8
						C96.7,114.3,96.5,113.8,96.2,113.9L96.2,113.9z"/>
					<path id="Path_35_" class="st5" d="M67,176.2c2.9,0.6,6.3-0.1,8.4-2.2c0.2-0.2,0.2-0.5,0-0.6c-0.2-0.2-0.4-0.2-0.6-0.1
						c-1.1,0.8-2.4,1.4-3.7,1.8c-1.3,0.4-2.7,0.5-4.1,0.4C66.7,175.4,66.6,176.1,67,176.2L67,176.2z"/>
					<path id="Path_36_" class="st5" d="M75.6,173.8c0.2,0.5,0.4,1,0.6,1.5c0.2,0.5,0.5,0.9,0.7,1.4c0.2,0.4,0.5,0.9,0.8,1.4
						c0.1,0.2,0.3,0.5,0.4,0.7c0.2,0.2,0.4,0.5,0.6,0.7c0.4,0.3,0.8-0.1,0.8-0.5c-0.1-0.5-0.3-1.1-0.6-1.5c-0.3-0.5-0.5-0.9-0.8-1.4
						c-0.3-0.5-0.6-1-0.9-1.4c-0.3-0.4-0.6-0.9-1-1.3C76,172.9,75.4,173.3,75.6,173.8L75.6,173.8z"/>
					<path id="Path_37_" class="st5" d="M68.4,176.1c0.3,1,0.8,2,1.4,2.9c0.6,1,1.3,1.9,2.1,2.7c0.3,0.2,0.7,0.3,1,0.1
						s0.4-0.5,0.3-0.9c-0.6-1-1.3-1.8-1.9-2.7c-0.7-0.9-1.2-1.7-1.9-2.6C69,175.4,68.2,175.7,68.4,176.1L68.4,176.1z"/>
					<path id="Path_38_" class="st5" d="M73.3,181.1c0.2,0.2,0.4,0.4,0.7,0.5c0.3,0.2,0.6,0.3,0.9,0.3c0.6,0.1,1.2,0.1,1.8-0.1
						c0.6-0.1,1.2-0.4,1.7-0.8c0.5-0.4,0.9-0.9,1.1-1.5c0.1-0.3,0-0.6-0.3-0.7c-0.3-0.1-0.6,0-0.8,0.2c-0.1,0.1-0.4,0.4-0.5,0.5
						c-0.2,0.2-0.3,0.3-0.5,0.4l-0.1,0.1c-0.2,0.1,0.1-0.1-0.1,0l-0.3,0.2c-0.2,0.1-0.4,0.2-0.6,0.3c-0.4,0.1-0.9,0.2-1.3,0.2
						c-0.2,0-0.5,0-0.7-0.1c-0.3,0-0.5,0-0.8-0.1C73.4,180.5,73,180.8,73.3,181.1L73.3,181.1z"/>
					<path id="Path_39_" class="st5" d="M78.9,180.1c0,0,0.1,0.2,0.1,0.1c0-0.1,0,0.2,0.1,0.2c0.1,0.1,0.2,0.3,0.3,0.4
						c0.2,0.2,0.4,0.5,0.6,0.7c0.4,0.5,0.7,1,1,1.5c0.3,0.5,0.6,1.1,0.8,1.7c0.1,0.3,0.2,0.5,0.2,0.8c0.1,0.4,0.2,0.7,0.5,1
						c0.1,0.2,0.4,0.2,0.6,0.2c0.2,0,0.4-0.2,0.5-0.4c0.1-0.4,0.1-0.7,0-1.1c-0.1-0.4-0.2-0.7-0.3-1.1c-0.5-1.3-1.2-2.5-2.1-3.5
						c-0.3-0.3-0.5-0.5-0.9-0.7c-0.1-0.1-0.3-0.2-0.5-0.3c-0.2-0.1-0.3-0.1-0.5-0.1C78.9,179.5,78.7,179.9,78.9,180.1L78.9,180.1z"
						/>
					<path id="Path_40_" class="st5" d="M82.2,186.8c-4.4,0.9-8.6,2.2-12.7,3.8c-1,0.4-2,0.8-3,1.2c-1,0.5-2,0.9-3.1,1.2
						c-2.1,0.5-4.2-1-6.3-0.4c-0.5,0.1-0.8,0.5-0.7,1c0.1,0.5,0.5,0.8,1,0.7c2.1-0.3,4.1,0.7,6.2,0.3c1.1-0.3,2.1-0.6,3.1-1.1
						c1.1-0.4,2.1-0.9,3.2-1.3c4.2-1.6,8.6-2.9,12.8-4.6c0.2-0.1,0.3-0.4,0.3-0.6C82.7,186.9,82.5,186.8,82.2,186.8L82.2,186.8z"/>
					<path id="Path_41_" class="st5" d="M71.1,181.2c-0.8,0.5-1.6,1.1-2.3,1.7c-0.8,0.5-1.7,1-2.6,1.4c-1.8,0.8-3.7,1.4-5.4,2.2
						c-1.8,0.9-3.5,1.9-4.6,3.5c-0.7,0.9-0.8,2.1-0.5,3.2c0.4,0.9,1.3,1.9,2.4,1.7c0.3-0.1,0.6-0.4,0.6-0.7c0-0.4-0.2-0.7-0.5-0.8
						c-0.4-0.2-0.9-0.2-1.1-0.7c-0.2-0.5-0.1-1,0.2-1.5c0.5-0.7,1.1-1.4,1.8-1.9c1.4-1,2.9-1.7,4.5-2.3c1.6-0.6,3.1-1.3,4.6-2.1
						c1.2-0.7,3-1.8,3.4-3.3C71.6,181.3,71.3,181.1,71.1,181.2L71.1,181.2z"/>
					<path id="Path_42_" class="st5" d="M89.7,112.2c-3.3,0-6.7,0.7-10,1.2c-3.1,0.5-6.3,1-9.4,1.6c-6.3,1.2-12.5,2.8-18.6,5
						c-3.1,1.1-6.2,2.4-9.1,4c-2.4,1.3-3.9,3.8-4.1,6.5c-0.2,2.9,0.5,5.7,1.2,8.4c0.9,3.5,2,7,2.9,10.6c2.1,7.8,4.3,15.6,7.3,23.1
						c0.3,0.8,1.7,0.4,1.5-0.5c-1.9-6.7-4.1-13.2-6.2-19.9c-1-3.3-2-6.6-3-10c-0.8-3-1.8-5.9-2.2-9c-0.4-2.7-0.1-5.5,2.2-7.3
						c1.3-0.9,2.8-1.7,4.3-2.3c1.4-0.7,2.9-1.3,4.4-1.8c5.8-2.2,11.8-3.9,17.9-5.1c3.4-0.7,6.8-1.3,10.3-1.8s7.2-0.9,10.6-2
						C90.2,112.9,90.1,112.2,89.7,112.2L89.7,112.2z"/>
					<path id="Path_43_" class="st5" d="M51,173.6c3.3,0.8,6.9,0.3,9.8-1.5c0.7-0.4,0.2-1.6-0.5-1.2c-2.8,1.7-6,2.3-9.1,1.8
						C50.7,172.6,50.5,173.5,51,173.6L51,173.6z"/>
					<path id="Path_44_" class="st5" d="M52.3,174.1c0.7,2.5,2,4.8,3.9,6.7c0.2,0.3,0.5,0.4,0.9,0.3c0.3,0,0.6-0.3,0.7-0.5
						c0.1-0.3,0-0.6-0.2-0.8c-0.8-0.9-1.5-1.9-2.1-2.9c-0.6-1-1.2-2.1-1.7-3.2c-0.1-0.4-0.6-0.6-1-0.5
						C52.4,173.3,52.2,173.7,52.3,174.1L52.3,174.1z"/>
					<path id="Path_45_" class="st5" d="M60.7,171.8c-1.2,2.9,0.1,6.1,3,7.7c0.4,0.2,0.9,0.2,1.2-0.2c0.3-0.4,0.2-0.9-0.2-1.1
						c-2.3-1.3-3.5-3.7-3.2-6.1C61.7,171.5,60.9,171.4,60.7,171.8L60.7,171.8z"/>
					<path id="Path_46_" class="st5" d="M55.8,181c3.3,1.8,7.6,1.2,10-2c0.4-0.6-0.3-1.3-0.8-0.9c-2.5,2.2-5.9,3.2-8.9,1.9
						c-0.1-0.1-0.3,0-0.4,0.1s-0.2,0.3-0.1,0.5S55.6,180.9,55.8,181L55.8,181z"/>
					<path id="Path_47_" class="st5" d="M56.6,181.2c-2.6,0.5-4.7,2.2-7.2,3c-3,1-6.2,1.2-9.2,1.9c-2.4,0.6-4.4,2.3-4,4.9
						c0.1,1,0.7,1.9,1.6,2.5c0.8,0.5,2.1,0.8,2.9,0.2c0.2-0.2,0.3-0.4,0.2-0.7c0-0.2-0.2-0.5-0.5-0.5c-0.7-0.3-1.5,0-2.1-0.8
						c-0.5-0.8-0.6-1.7-0.1-2.5c0.5-1,1.6-1.3,2.6-1.5c1.3-0.3,2.6-0.6,3.9-0.9c2.3-0.4,4.5-1,6.7-1.9c1.9-0.9,3.7-1.9,5.5-3
						c0.1-0.1,0.2-0.3,0.1-0.5C57,181.2,56.8,181.2,56.6,181.2L56.6,181.2z"/>
					<path id="Path_48_" class="st5" d="M40.3,193.4c0.4,0.9,1.5,0.6,2.2,0.5c1-0.1,2-0.2,2.9-0.3c1-0.1,2-0.1,2.9-0.1
						c1,0,2,0.1,2.9,0.1c0.5,0,0.9-0.3,0.9-0.8s-0.3-1-0.8-1c-2.1-0.3-4.2-0.3-6.3-0.1c-1.1,0.1-2.1,0.2-3.1,0.4
						c-0.5,0-1,0.2-1.4,0.5C40.5,192.7,40.1,193.1,40.3,193.4L40.3,193.4z"/>
					<path id="Path_49_" class="st5" d="M50,192.9c0.4,0.6,1.3,0,1.7-0.2l1.1-0.5l0.3-0.1c0.1-0.1-0.2,0.1,0,0l0.1,0
						c0.1,0,0.3-0.1,0.5-0.1c1.3-0.3,2.5-0.8,3.6-1.7c0.3-0.1,0.5-0.4,0.6-0.8c0-0.4-0.1-0.7-0.4-1c-0.3-0.2-0.6-0.2-0.9,0
						c-0.8,0.5-1.5,0.9-2.3,1.3c-0.1,0-0.2,0.1-0.3,0.1c-0.1,0.1,0.2-0.1,0,0h-0.1c-0.1,0-0.3,0.1-0.4,0.1c-0.4,0.1-0.8,0.2-1.2,0.4
						c-0.4,0.2-0.7,0.4-1,0.6c-0.5,0.3-0.9,0.7-1.2,1.1c-0.1,0.2-0.1,0.4,0,0.6L50,192.9L50,192.9z"/>
					<path id="Path_50_" class="st5" d="M63.8,179.7c0.5,0.3,1,0.6,1.5,1c0.4,0.4,0.8,0.9,1.1,1.4c0.3,0.5,0.6,1.1,0.8,1.7
						c0,0.1,0.1,0.1,0.1,0.2c0,0,0.1,0.2,0,0.1c0,0.1,0.1,0.3,0.1,0.4c0.1,0.4,0.2,0.7,0.3,1c0.1,0.3,0.5,0.5,0.8,0.4
						c0.3-0.1,0.6-0.3,0.6-0.7c0.1-0.8-0.1-1.5-0.4-2.2c-0.3-0.7-0.6-1.3-1.1-1.9c-0.9-1.1-2.1-1.9-3.4-2.4
						C63.7,178.6,63.3,179.4,63.8,179.7L63.8,179.7z"/>
					<path id="Path_51_" class="st5" d="M98.4,57.6c6,0.5,12-1,17.1-4.3c0.6-0.4,0.2-1.5-0.5-1.1c-2.6,1.5-5.3,2.6-8.1,3.4
						c-2.8,0.7-5.6,1.2-8.5,1.3C98,57,98.1,57.6,98.4,57.6L98.4,57.6z"/>
					<path id="Path_52_" class="st3" d="M163.2,117.6c9.5,4.7,14.3,13.8,13.3,24.1c-0.2,2.1,3.1,2.4,3.7,0.5
						c3.2-11.3-4.5-24.2-15.7-27.5C162.8,114.2,161.6,116.8,163.2,117.6L163.2,117.6z"/>
				</g>
			</g>
			<g id="Group-9" transform="translate(1585.944274, 79.838765)">
				<path id="Path_53_" class="st6" d="M59.5,61.9C51.4,77.1,48.6,94,47,110.9c-1.5,16.4-1.7,32.9-2.6,49.4
					c-0.8,16.1-1.7,32.2-4.3,48.2c-2.6,16.7-7.6,32.7-13.1,48.7c-6.5,19-13.6,37.9-19.4,57.1c-1.2,4.1,1.5,8.6,5.5,9.7
					c4.5,1.2,8.3-1.5,9.8-5.5c6.3-16.7,13-33.3,19-50.1c5.7-15.8,11.3-31.7,14.5-48.2c6.4-32.6,6.6-66,7.8-99.1
					c0.7-18.3,3-36.1,8.4-53.7C75.1,59.7,63.3,54.6,59.5,61.9L59.5,61.9z"/>
				<path id="Path_54_" class="st7" d="M44.7,20.8c-4.3,4.5-4.5,11.3-0.5,16c0.7,0.7,1.9,0.7,2.6,0c0.7-0.7,0.7-1.8,0-2.5
					c0.1,0.2-0.1-0.1-0.1-0.2c0,0-0.2-0.2-0.2-0.3c-0.2-0.2-0.3-0.5-0.4-0.7l-0.2-0.3c-0.3-0.5,0,0.1-0.1-0.2
					c-0.1-0.3-0.2-0.5-0.3-0.8c-0.1-0.3-0.2-0.5-0.2-0.8c0-0.1-0.1-0.2-0.1-0.4c0-0.1-0.1-0.4,0-0.2C45,29.9,45,29.3,45,28.7
					c0.1-2,0.9-3.9,2.3-5.4C49,21.6,46.4,19.2,44.7,20.8L44.7,20.8z"/>
				<path id="Path_55_" class="st7" d="M34.4,11.9c-6.7,7.7-9.2,18.3-6.6,28.2c0.6,2.2,4,1.3,3.4-0.9c-2.3-8.7-0.2-18,5.7-24.7
					C38.3,12.7,35.9,10.2,34.4,11.9L34.4,11.9z"/>
				<path id="Path_56_" class="st7" d="M21.2,3C12.9,11.1,8.6,22.8,8.9,34.3c0.1,3.3,0.6,6.6,1.4,9.9c0.6,2.2,4.1,1.3,3.5-0.9
					c-2.7-10.4-1.1-21.5,4.5-30.8c1.5-2.5,3.4-4.9,5.5-6.9C25.4,3.8,22.9,1.3,21.2,3L21.2,3z"/>
				<path id="Path_57_" class="st6" d="M82,200.3c3,21.9,6.7,43.7,11.8,65.3s10.4,43,18,63.7c2.9,8,14.9,4.9,12.9-3.5
					c-5.1-21.5-11.1-42.7-16.1-64.3s-9.7-43-14-64.6c-0.7-3.5-4.8-5.4-8-4.6C82.8,193.4,81.6,196.8,82,200.3L82,200.3z"/>
				<path id="Path_58_" class="st5" d="M91.3,13.7c4.4,5.6,8.1,12.5,6.9,19.9c-1,6.3-5.7,12-12.4,12c-3.3,0-6.5-1.4-8.6-4
					c-0.4-0.5-1.2,0-0.9,0.6c3.4,5.8,11.9,6.1,17,2.5c6.1-4.4,7.6-12.9,5.6-19.7c-1.4-4.4-3.8-8.5-7-11.8C91.8,13,91.7,13,91.5,13
					c-0.2,0-0.3,0.1-0.4,0.3C91.1,13.4,91.1,13.6,91.3,13.7L91.3,13.7z"/>
				<path id="Path_59_" class="st5" d="M67,50.1c-3.9-1.4-8.1-0.3-11.4,2.2C52,55,49.7,59.1,47.5,63c-4.7,8.3-8.9,16.8-12.6,25.6
					c-7.4,17.7-12.6,36.2-15.7,55.1c-1.8,10.5-2.8,21.2-3,31.9c0,1.3,2,1.5,2.1,0.2c0.6-9.2,1.3-18.5,2.6-27.6
					c1.4-9.2,3.2-18.3,5.6-27.3c4.7-17.9,11.4-35.3,19.9-51.7c2.3-4.4,4.5-9.1,7.8-13c3-3.6,7.9-6.5,12.6-5.2
					c0.2,0.1,0.4-0.1,0.5-0.3C67.4,50.4,67.3,50.2,67,50.1L67,50.1z"/>
				<path id="Path_60_" class="st5" d="M16.6,177.1c2.5,0.3,5,0.4,7.5,0.4c2.5,0.1,5,0,7.5,0c1.1,0,1.2-1.6,0.1-1.6
					c-2.5,0-5.1,0-7.6,0c-2.5,0-5,0.1-7.5,0.4c-0.2,0-0.4,0.2-0.4,0.4C16.2,176.9,16.4,177.1,16.6,177.1L16.6,177.1z"/>
				<path id="Path_61_" class="st5" d="M33.4,179c7.2-6.2,10.7-15.6,12.9-24.5c2.5-10.2,3.6-20.7,4.2-31.1c0.2-2.7,0.3-5.3,0.4-8
					c0.2-2.3,0.2-4.7,0.1-7c-0.1-0.8-1.1-0.6-1.3,0c-0.3,2-0.5,4-0.5,6c-0.1,2.3-0.2,4.6-0.4,6.8c-0.3,5-0.7,10.1-1.2,15.1
					c-1.1,10.1-2.9,20.3-6.9,29.7c-1.9,4.5-4.5,8.8-8.1,12.1C32.1,178.6,32.8,179.5,33.4,179L33.4,179z"/>
				<path id="Path_62_" class="st5" d="M42.8,164.4c4.4-0.7,8.8-1.2,13.2-1.4c4.4-0.1,8.9,0.1,13.2,0.8c4.3,0.6,8.6,1.8,12.9,2.2
					c4.5,0.5,9.1,0.1,13.6,0c5.1-0.1,10.2-0.3,15.3-0.4c1.1,0,1.3-1.8,0.2-1.8c-4.6,0.1-9.3,0.2-13.9,0.4c-4.6,0.1-9.2,0.5-13.8,0.2
					c-4.4-0.3-8.6-1.4-12.9-2.1c-4.4-0.7-8.9-1-13.4-0.8c-4.9,0.2-9.9,0.6-14.6,2.1C41.9,163.6,42.2,164.5,42.8,164.4L42.8,164.4z"
					/>
				<path id="Path_63_" class="st5" d="M116.8,167.3c-0.9-5.5-2.8-10.9-4.7-16.2c-1.9-5.4-3.9-10.7-5.8-16.1
					c-3.9-10.7-7.7-21.4-9.8-32.6c-1.2-6.2-1.7-12.6-1.6-18.9c0-1.1-1.6-1.2-1.6-0.1c-0.3,11.4,1.9,22.5,5.2,33.3
					c3.3,10.9,7.6,21.6,11.4,32.3c1.1,3,2.1,6.1,3.2,9.2c1,3.1,1.9,6.2,3,9.3C116.2,168,116.9,167.8,116.8,167.3L116.8,167.3z"/>
				<path id="Path_64_" class="st5" d="M94.2,85.7c1.9,1.5,3.9,2.9,5.9,4.2c1.9,1.3,3.8,2.7,5.7,4c3.8,2.8,7.5,5.9,11,9.1
					c7,6.3,13.2,13.3,18.8,20.9c3.2,4.3,5.9,8.9,8.7,13.4c0.5,0.9,2,0.3,1.5-0.7c-2.3-4.2-4.9-8.3-7.8-12.1
					c-8.4-11.7-18.5-22.1-30-30.8c-2.2-1.6-4.4-3.2-6.7-4.7c-2.2-1.5-4.5-2.9-6.9-3.9C94.2,85,94,85.5,94.2,85.7L94.2,85.7z"/>
				<path id="Path_65_" class="st5" d="M140.7,154.7c-5.4-1.1-10.7-2.1-15.8-4.2c-4.6-1.9-8.9-4.5-12.7-7.7c-2.5-2-4.7-4.4-7.1-6.5
					c-0.7-0.6-1.6,0.5-1.1,1.2c2,2.2,4.1,4.3,6.4,6.1c2,1.7,4.2,3.3,6.4,4.7c4.4,2.7,9.1,4.7,14.1,5.8c3.2,0.7,6.4,1.2,9.7,1.5
					c0.3,0,0.5-0.2,0.5-0.4C141.2,155,141,154.7,140.7,154.7L140.7,154.7z"/>
				<path id="Path_66_" class="st5" d="M148.5,139.6c-0.1,0.4-0.4,0.7-0.5,1c-0.1,0.4-0.2,0.7-0.4,1.1c-0.2,0.7-0.5,1.4-0.8,2.1
					c-0.7,1.4-1.5,2.7-2.5,3.8c-2.1,2.3-4.7,4-7.6,5c-0.3,0.2-0.4,0.5-0.3,0.8c0.1,0.3,0.4,0.5,0.7,0.5c3.3-0.8,6.3-2.7,8.5-5.3
					c1.1-1.3,2-2.7,2.7-4.2c0.3-0.8,0.6-1.6,0.8-2.4c0.1-0.4,0.2-0.7,0.2-1.1c0-0.4,0-0.9-0.1-1.3
					C149.1,139.4,148.6,139.3,148.5,139.6L148.5,139.6z"/>
				<path id="Path_67_" class="st5" d="M31.9,175.3c-1.6,4.6-2.9,9.3-3.9,14.1c-0.5,2.4-1,4.8-1.4,7.2c-0.3,2-0.7,3.9-1.3,5.9
					c-0.1,0.4-0.3,0.8-0.6,1.2c-0.1,0.1-0.2,0.3-0.3,0.3c-0.1,0,0.1,0-0.1,0c-0.1,0-0.2-0.1-0.2-0.1c-0.2-0.2-0.4-0.4-0.6-0.6
					c-1-1.2-1.6-2.6-2.7-3.7c-2-2-3.9,0.8-5.1,2.4s-2.3,3.4-4.2,4.2c-1.6,0.6-3.4,0.6-5-0.1c-3.5-1.3-5.1-5.2-4.5-8.8
					c0.7-3.5,3-6.3,5.9-8.2c2.5-1.7,5.4-2.6,7.9-4.3c2.8-2,4.6-5.2,4.8-8.7c0.1-0.4-0.2-0.8-0.6-0.9c-0.4-0.1-0.8,0.2-0.9,0.6
					c-1.2,3-2.1,5.9-4.9,7.7c-2.4,1.5-5.1,2.4-7.4,3.9c-3.2,2-5.5,5.1-6.5,8.7c-1,3.6,0.1,7.4,2.8,9.9c2.7,2.4,7,2.9,10.1,1
					c1.7-1.1,2.8-3,4-4.6c0.5-0.7,1.5-1.6,1.8-2c0,0,0,0,0.1,0c0.5,0.4,1,1,1.3,1.6c0.5,0.7,0.9,1.4,1.4,2c1,1.2,2.5,2.2,3.8,0.7
					c0.9-1.1,1.2-2.6,1.5-3.9c0.6-2.7,1-5.5,1.5-8.2c1.1-5.8,2.3-11.5,3.7-17.2C32.5,175.1,32,174.9,31.9,175.3L31.9,175.3z"/>
				<path id="Path_68_" class="st5" d="M138.9,151.8c1.7,1.8,4,2.8,6.1,4.2c2.5,1.6,3.8,3.8,4.7,6.5c0.8,2.6,1.5,5.5,3.8,7.2
					c1.7,1.3,4.3,1.9,6.2,0.7c3.1-1.9,1.5-5.8,0-8.2l-1.1,1.1c4.1,1.2,6.3,5.8,10.5,6.7c2.2,0.4,4.5-0.5,5.8-2.4
					c1.1-1.7,1.4-3.7,0.8-5.6c-1-3.5-3.8-6.2-6.6-8.3c-3.4-2.6-7.1-4.7-11.1-6.3c-3.5-1.5-7.5-3-11.4-3.1c-1.1,0-1.2,1.6-0.1,1.6
					c3,0.1,6,1.1,8.7,2.1c3.7,1.4,7.2,3.2,10.5,5.4c2.8,1.9,5.8,4.1,7.4,7.1c0.8,1.2,1.2,2.7,1.1,4.2c-0.3,2.1-2,4-4.3,3.8
					c-2.1-0.1-3.7-1.8-5.2-3c-1.7-1.5-3.4-3-5.6-3.6c-0.6-0.2-1.5,0.5-1.1,1.1c1.1,1.7,3.1,5.4,0.1,6.4c-2,0.6-4.2-0.6-5.2-2.2
					c-1.5-2.2-1.9-5-3-7.4c-0.9-2-2.4-3.6-4.3-4.8c-2.1-1.3-4.3-2.4-6.3-3.8C139.1,150.7,138.5,151.4,138.9,151.8L138.9,151.8z"/>
				<path id="Path_69_" class="st5" d="M91.8,178.6c-2.6,5.8-4.7,11.7-7.1,17.6c-2.2,5.4-4.4,10.8-6.6,16.2
					c-4.1,9.8-8.4,19.5-12.8,29.2c-4.1,9-8.3,17.9-12.6,26.7c-4.3,9-8.7,18-13,27c-4.7,9.8-9.2,19.7-13.7,29.6
					c-0.6,1.3-1.2,2.7-1.7,4c-0.3,0.7,0.9,1.4,1.2,0.6c2.6-5.1,4.8-10.4,7.2-15.6c2.2-4.9,4.5-9.7,6.8-14.5
					c4.3-9.1,8.7-18.2,13.1-27.2c4.3-8.8,8.6-17.7,12.7-26.6c4.4-9.5,8.6-19.1,12.7-28.8c4.6-11,8.9-22.2,12.9-33.5
					c0.5-1.5,1-3.1,1.5-4.6c0.1-0.2,0-0.4-0.2-0.5S91.8,178.4,91.8,178.6L91.8,178.6z"/>
				<path id="Path_70_" class="st5" d="M52,169.6c-3.1,10.2-5.9,20.4-8.4,30.7c-2.5,10.1-4.7,20.3-7,30.4
					c-4.5,20.3-8.9,40.7-14.8,60.7c-1.6,5.6-3.4,11.2-5.2,16.7c-0.9,2.8-1.9,5.5-2.9,8.3c-1,2.8-2.3,5.7-3.1,8.6
					c-0.2,0.6,0.7,1.2,1.1,0.6c1.2-2.4,2.2-4.8,3.1-7.4c0.9-2.4,1.8-4.9,2.7-7.3c1.8-5,3.4-10,4.9-15c3.1-10,5.7-20.1,8.2-30.3
					c4.9-20.3,9-40.7,13.6-61.1c2.7-11.6,5.3-23.1,8.6-34.6C52.8,169.5,52.1,169.2,52,169.6L52,169.6z"/>
				<path id="Path_71_" class="st5" d="M74.7,220.2c4.5,13.8,10,27.2,15.5,40.6c5,12.1,9.8,24.4,13.5,36.9c1.2,3.9,2.2,7.7,3.2,11.7
					c0.5,2.1,1,4.3,1.6,6.5c0.4,2.2,1,4.4,1.7,6.5c0.2,0.4,0.9,0.3,0.9-0.2c-0.1-2-0.4-4-0.9-6c-0.4-1.9-0.8-3.7-1.2-5.6
					c-0.9-3.6-1.8-7.2-2.8-10.7c-1.8-6.5-4-13-6.3-19.3c-4.5-12.4-9.9-24.5-15-36.7c-3.3-7.9-6.5-15.9-9.6-23.9
					C75.1,219.5,74.5,219.8,74.7,220.2L74.7,220.2z"/>
				<path id="Path_72_" class="st5" d="M106.3,168c4.4,20.8,6.9,41.9,8.6,63.1c1.8,21.3,3,42.6,5.6,63.8c0.7,5.9,1.5,11.7,2.5,17.5
					s1.9,11.9,3.5,17.7c0.3,1,1.9,0.8,1.7-0.3c-0.9-5.3-2.1-10.5-3-15.8s-1.7-10.6-2.4-15.9c-1.4-10.5-2.3-21.1-3.2-31.7
					c-1.8-21.2-3.1-42.5-6.1-63.6c-1.6-11.8-3.9-23.4-6.9-34.9C106.5,167.7,106.2,167.8,106.3,168L106.3,168z"/>
				<path id="Path_73_" class="st5" d="M63.3,50.9c0.8-1.6,1.4-3.3,1.8-5.1c0.5-1.7,1-3.4,1.5-5.2c0.2-0.9-1.2-1.4-1.5-0.5
					c-0.5,1.7-1,3.5-1.4,5.2c-0.5,1.7-0.9,3.5-1.1,5.3c0,0.2,0.1,0.3,0.3,0.3S63.1,51,63.3,50.9L63.3,50.9z"/>
				<path id="Path_74_" class="st5" d="M96.9,16.9c4.5,1,9.2,1.5,13.8,1.6c2.3,0.1,4.7,0.2,7,0.1c1.9,0,3.7-0.3,5.4-1
					c1.3-0.6,3.3-1.9,2.4-3.5c-0.4-0.6-1.1-1-1.8-1.2c-1.1-0.4-2.2-0.8-3.3-1.1c-4.2-1.3-8.6-2.3-13-2.9c-2.5-0.3-5-0.6-7.5-0.7
					c-2.5-0.2-5.1-0.1-7.6,0.1c-0.4,0-0.7,0.3-0.7,0.7c0,0.4,0.3,0.7,0.7,0.7c2,0.1,3.9-0.1,5.9,0c2,0.1,3.9,0.2,5.9,0.4
					c4,0.4,7.9,1.1,11.8,2.1c1.9,0.5,3.8,1,5.6,1.7l1.4,0.5c0.3,0.1,0.9,0.2,1.1,0.5c0.6,0.7-1.3,1.5-1.7,1.7
					c-1.6,0.6-3.4,0.9-5.1,0.9c-2,0.1-4.1,0-6.1,0c-4.7-0.2-9.4-0.7-14.2-1C96.6,16.3,96.5,16.9,96.9,16.9L96.9,16.9z"/>
				<path id="Path_75_" class="st5" d="M91.6,7.2c0.5-2.9-2.9-4.7-5.2-5.4C83,0.9,79.5,0.6,76,0.9C68.9,1.3,61.5,4.6,59,11.8
					c-1.2,3.5-0.8,8.2,2.2,10.7c0.8,0.7,1.8-0.6,1.2-1.4c-1-1.2-1.7-2.6-2-4.1c-0.3-1.4-0.2-2.9,0.2-4.3c0.9-2.8,2.7-5.2,5.1-6.9
					c2.7-1.8,5.8-2.9,9-3.1c3.2-0.3,6.5-0.2,9.6,0.3c1.4,0.2,2.7,0.7,3.9,1.4c1.1,0.7,2,1.7,2.6,2.9c0.1,0.1,0.2,0.2,0.4,0.2
					S91.5,7.4,91.6,7.2L91.6,7.2z"/>
				<path id="Path_76_" class="st5" d="M62.2,26.4c-1-0.9,1-2.5,1.7-3c1.2-0.9,2.5-1.7,3.9-2.4c2.7-1.4,5.5-2.5,8.4-3.3
					c5.9-1.5,12-1.3,18-0.1c0.8,0.2,1.1-1.1,0.3-1.4c-10.2-3.5-22.5-0.8-31,5.5c-1,0.8-2.1,1.6-2.5,2.9c-0.2,0.4-0.2,0.9,0,1.3
					c0.2,0.4,0.5,0.8,1,0.9C62.1,26.8,62.3,26.6,62.2,26.4L62.2,26.4z"/>
				<path id="Path_77_" class="st5" d="M65.7,22.3c3.4-0.6,6.8,1.2,8.3,4.4c1.4,3.2,1,6.8-1,9.6c-0.9,1.4-2.3,2.3-3.9,2.5
					c-1.6,0.2-3.2-0.2-4.5-1.3c-2.9-2.3-3.4-6.6-2.4-10c0.5-1.9,1.6-3.6,3.2-4.7c1.6-1,3.6-1.1,5.3-0.2c0.8,0.4,1.3-0.8,0.6-1.3
					c-1.7-1.2-3.8-1.4-5.7-0.5c-1.9,0.9-3.4,2.4-4.3,4.4c-1.9,3.9-1.8,9.4,1.2,12.7c2.8,3,7.2,3.6,10.3,0.9c3.1-2.7,4.2-7.4,3-11.4
					c-1.3-4.4-5.9-7.8-10.2-5.5C65.3,22,65.4,22.4,65.7,22.3L65.7,22.3z"/>
				<path id="Path_78_" class="st5" d="M64.6,21c0-0.1,0.1-0.2,0.1-0.2c0,0,0-0.1,0-0.1c0,0,0-0.1,0-0.1c0-0.1-0.1-0.1-0.2-0.1l0,0
					l0.1,0.1v-0.2c0-0.1-0.1-0.1-0.2-0.1c-0.1,0-0.2,0-0.2,0.1v0.2l0.1-0.1l0,0c-0.1,0-0.1,0.1-0.1,0.1c0,0,0,0.1,0,0.1
					c0,0,0,0.1,0,0.1c0,0.1,0.1,0.1,0.1,0.2C64.4,21.1,64.5,21.1,64.6,21C64.6,21.1,64.6,21.1,64.6,21L64.6,21z"/>
				<path id="Path_79_" class="st5" d="M65.3,20.1c-0.2-0.2,0-0.8-0.1-1.1c-0.1-0.3-0.3-0.5-0.5-0.7c-0.3-0.4-0.5-0.9-0.8-1.4
					c-0.5-1-0.9-2-1.2-3c-0.6-2-0.5-4.2,0.4-6.2c1.7-3.7,6-4.9,9.4-6.3C73.3,1.1,73-0.2,72.2,0c-4.2,1.1-8.8,3-10.7,7.2
					c-0.9,2.2-1,4.6-0.2,6.9c0.3,1.2,0.8,2.3,1.4,3.4c0.3,0.5,0.6,1,0.9,1.5c0.1,0.3,0.3,0.5,0.5,0.7c0.3,0.2,0.9,0.3,1.1,0.5
					C65.2,20.3,65.4,20.2,65.3,20.1L65.3,20.1z"/>
				<path id="Path_80_" class="st5" d="M62,26c-3.3-3.7-4.7-8.8-3-13.5c1-2.4,2.6-4.5,4.7-6c2.2-1.7,4.9-2.7,7.4-3.8
					c0.2-0.1,0.4-0.4,0.3-0.7S71,1.6,70.7,1.6c-4.4,1-9,3.6-11.6,7.3c-2.4,3.6-3,8-1.7,12.1c0.7,2.2,2,4.2,3.9,5.7
					C61.8,27,62.3,26.4,62,26L62,26z"/>
				<path id="Path_81_" class="st5" d="M103.1,19.5c3.9,1.6,6.6,6.3,5.5,10.5c-0.6,2.1-1.9,3.8-3.8,5c-0.9,0.6-1.8,1-2.9,1.2
					c-1.1,0.2-2.2,0.1-3.3,0.2c-0.8,0.1-0.7,1.1-0.1,1.3c1.6,0.8,4.1,0.1,5.7-0.5c1.8-0.8,3.4-2.1,4.5-3.7c2.2-3.4,2.1-7.7-0.2-11
					c-1.2-1.9-3-3.2-5.1-3.7c-0.2-0.1-0.5,0.1-0.5,0.3C102.8,19.2,102.9,19.4,103.1,19.5L103.1,19.5z"/>
				<path id="Path_82_" class="st5" d="M83.6,52.2c0.6,0.6,1.2,1.2,1.9,1.7c0.7,0.7,1.3,1.4,1.9,2.3c1.1,1.9,1.8,4.1,2,6.4
					c0.7,5.2,0.3,10.5,1,15.6c0.1,0.3,0.4,0.5,0.6,0.5c0.3,0,0.5-0.2,0.6-0.5c0-2.9-0.1-5.8-0.4-8.6c-0.1-2.8-0.3-5.7-0.7-8.5
					c-0.4-2.3-1.2-4.5-2.5-6.4c-0.9-1.3-2.8-3.2-4.5-2.6c0,0,0,0,0,0.1S83.6,52.1,83.6,52.2L83.6,52.2z"/>
			</g>
			<g id="Group-2" transform="translate(1393.067625, -0.000000)">
				<path id="Path_83_" class="st8" d="M30.5,111.3c7.8,2,17.2,0.3,25-1.3c8.1-1.6,16.6-3.9,24.1-7.5c8.7-4.2,6.7-12.3,4.6-19.9
					c-2.2-8-5.3-15.8-9.2-23.2c-3.9-7.5-15.8-0.8-11.7,6.6c3,5.3,5.5,10.9,7.5,16.7c1,2.9,2.6,6.5,2.8,9.6l0.7-1.1
					c-0.7,0.3-1.3,0.6-2,0.8c-1.6,0.6-3.2,1.2-4.8,1.7c-5.9,1.9-11.9,3.4-18,4.5c-6.2,1.1-13,1-19,2.9
					C25.5,102.6,25.1,109.9,30.5,111.3L30.5,111.3z"/>
				<path id="Path_84_" class="st5" d="M56.8,10.9C55.5,3,46.7-1.7,39.5,0.6c-3.7,1.3-6.7,3.9-8.5,7.5c-0.9,1.7-1.4,3.6-1.6,5.5
					c-0.2,2.4,0.5,4.8,0.3,7.1c-0.4,4.4-5,5.5-8.1,7.6c-3.2,2.2-5,6.1-4.6,10c0.4,3.9,3,7.3,6.7,8.6c3.7,1.3,7.8,0.4,10.6-2.3
					c1.6-1.5,2.8-3.3,3.7-5.3c0.9-2.2,1.6-4.5,2.1-6.8c1.5-5.4,3.4-10.7,3-16.4l-0.9,1c2.9,0,6,0,8.6-1.5c2-1.1,3.5-3.1,3.8-5.5
					c0.1-0.9-1.2-1-1.3-0.1c-0.8,5.1-7,5.4-10.9,5.4c-0.3,0-0.5,0.1-0.7,0.3s-0.3,0.5-0.2,0.7c0.3,4.6-1.2,8.9-2.5,13.2
					c-1.1,3.7-1.7,7.6-3.7,10.8c-1.9,3-4.9,5.3-8.5,5c-3.6-0.2-6.6-2.8-7.5-6.3c-0.8-3.6,0.7-7.3,3.8-9.3c2.6-1.7,6-2.7,7.7-5.6
					c2.1-3.5,0.3-7.6,0.9-11.4c0.6-3.5,2.6-6.7,5.5-8.7c7-5,16.1-0.5,19.1,7c0.1,0.2,0.3,0.3,0.5,0.2C56.8,11.3,56.9,11.1,56.8,10.9
					L56.8,10.9z"/>
				<path id="Path_85_" class="st5" d="M57,11.4c6.1,5.7,13.3,11.6,15,20.5c0.9,3.9,0.1,8.1-2.2,11.4c-2.1,3-5.6,4.7-9.2,4.3
					c-1.2-0.2-1.3,1.8-0.2,1.9c6.2,0.9,11.9-4.2,13.3-10.3c1.7-7.4-1.7-14.8-6.6-20.1c-3-3.1-6.3-5.9-9.8-8.3
					C57,10.6,56.7,11.1,57,11.4L57,11.4z"/>
				<path id="Path_86_" class="st5" d="M56.4,14.3c0.8,4.7,2.2,10-0.1,14.6c-1.7,3.2-5.5,5.7-9.1,4.3c-1.1-0.5-1.7,1.2-0.6,1.7
					c4.1,2.1,8.9-0.9,11-4.6c2.7-4.9,1.1-11.2-0.7-16.1C56.8,13.9,56.4,14,56.4,14.3z"/>
				<path id="Path_87_" class="st5" d="M48,34.9c-0.3,2-0.5,4-0.6,6c-0.1,2-0.4,4-0.2,6c0.1,0.9,3,0.8,3.1-0.1c0.2-2-0.1-4-0.2-6
					s-0.3-3.9-0.6-5.9C49.4,34.4,48.2,34.4,48,34.9L48,34.9z"/>
				<path id="Path_88_" class="st5" d="M38.6,48.7c0.7,0.6,1.4,1.1,2.3,1.5c1.8,0.7,3.7,0.7,5.5,0.2c1-0.2,1.9-0.7,2.6-1.3
					c0.2-0.2,0.4-0.4,0.4-0.7c0-0.3-0.2-0.6-0.4-0.7s-0.6-0.1-0.8,0c-0.4,0.1-0.7,0.4-1.1,0.5c-0.4,0.2-0.7,0.3-1.1,0.4
					c-0.7,0.2-1.5,0.4-2.3,0.4c-0.8,0-1.6,0-2.3-0.2l-1.1-0.2c-0.4-0.1-0.8-0.2-1.2-0.5c-0.1-0.1-0.3,0-0.3,0.1
					C38.5,48.4,38.5,48.6,38.6,48.7L38.6,48.7z"/>
				<path id="Path_89_" class="st5" d="M27.6,44.3c-4.7-0.6-9.1,2.8-11.9,6c-3.2,4-5.9,8.4-7.8,13c-5.7,12.7-9.2,27-6,40.7
					c1.6,7.4,5.3,14.3,10.8,19.8c0.8,0.8,2.2-0.3,1.4-1.1c-10-9.9-13.1-23.9-11.3-37.2c1-6.8,2.9-13.4,5.6-19.8
					c1.7-4.3,3.9-8.5,6.6-12.4c1.5-2.2,3.4-4.3,5.6-6c2-1.5,4.4-2.5,7-2.8c0.1,0,0.1-0.1,0.1-0.1C27.7,44.4,27.6,44.3,27.6,44.3
					L27.6,44.3z"/>
				<path id="Path_90_" class="st5" d="M80.6,83.4C80,76,78.3,68.8,75.4,61.9c-2.4-5.6-5.9-14-13.4-13.3c-1.3,0.1-0.9,2.1,0.3,2
					c3.3-0.2,6,2.3,7.6,4.9c1.7,2.8,3.1,5.8,4.3,8.9c2.5,6.2,4.2,12.7,5.1,19.3C79.5,84.5,80.7,84.2,80.6,83.4L80.6,83.4z"/>
				<path id="Path_91_" class="st5" d="M97.3,90.4c0.4,0,0.5-0.6,0.1-0.6C96.9,89.8,96.9,90.4,97.3,90.4z"/>
				<path id="Path_92_" class="st5" d="M14.5,87.5c-1,1.5-0.8,3.7-0.7,5.3c0.2,2.2,0.6,4.3,1,6.4c0.7,4,1.5,8.1,1.9,12.1
					c0.4,4.1,0.1,8.2-0.9,12.2c-0.5,2-1,3.9-1.2,5.9c-0.3,2-0.5,4.2,0.3,6c0.2,0.3,0.6,0.5,1,0.5c0.4-0.1,0.7-0.4,0.8-0.7
					c0.1-0.9-0.1-2-0.1-3c0-1,0.1-2,0.3-3c0.3-2,0.8-4,1.2-5.9c0.9-3.8,1.1-7.7,0.8-11.6c-0.4-4-1.1-8-2.1-11.9
					c-0.5-2-1.1-4-1.4-6.1c-0.2-1-0.3-2.1-0.4-3.1c0-1,0-2-0.1-3C14.9,87.4,14.6,87.3,14.5,87.5L14.5,87.5z"/>
				<path id="Path_93_" class="st5" d="M28.2,127.3c2.7-0.2,5.3,0.7,7.3,2.5c2.1,1.8,4.7,2.8,7.4,3.1c4.6,0.5,9.2,0.8,13.8,0.8
					c2.3,0,4.6-0.1,6.8-0.4c2.3-0.3,4.6-0.8,6.8-1.5c0.9-0.3,0.8-1.9-0.3-1.7c-2.3,0.4-4.6,0.7-7,0.9c-2.4,0.2-4.8,0.3-7.1,0.2
					c-4.6,0-9.1-0.3-13.6-0.9c-1.5-0.2-2.9-0.6-4.2-1.3c-0.8-0.5-1.6-1.1-2.4-1.6c-2.4-1.5-4.9-1.4-7.6-1
					C27.5,126.6,27.7,127.4,28.2,127.3L28.2,127.3z"/>
				<path id="Path_94_" class="st5" d="M35.3,38.5c0.2,1.6,0.4,3.2,0.7,4.7l0.4,2.3c0.1,0.8,0.3,1.7,0.5,2.5
					c0.4,1.1,1.7,0.5,1.6-0.6c-0.1-0.8-0.3-1.5-0.5-2.3l-0.5-2.4c-0.3-1.6-0.7-3.1-1.2-4.6C36,37.4,35.2,37.8,35.3,38.5L35.3,38.5z"
					/>
				<path id="Path_95_" class="st5" d="M22.3,129.8c0.4,6.5,1.4,13,2,19.5c0.6,6.5,1.1,13,1.6,19.6c0.9,13,1.4,26,2.1,39
					c0.4,7.5,0.7,14.8,1.1,22.2c0.1,1.1,1.9,1.1,1.8-0.1c-0.4-13-1.2-26.1-1.8-39.2c-0.6-13.1-1.3-26.1-2.8-39.1
					c-0.9-7.3-1.6-14.9-3.6-22c0-0.1-0.2-0.2-0.3-0.2C22.4,129.5,22.3,129.6,22.3,129.8L22.3,129.8z"/>
				<path id="Path_96_" class="st5" d="M31,231.1c0.5,0.9,1.8,1.1,2.6,1.3c0.9,0.3,1.9,0.4,2.9,0.5c2,0.3,4,0,5.9-0.9
					c0.7-0.4,0.6-2.3-0.3-2.2c-1.9,0.1-3.7,0.7-5.6,0.8c-0.9,0-1.9,0-2.8-0.1c-0.9-0.1-1.9-0.5-2.6,0c-0.1,0.1-0.1,0.2-0.2,0.3
					C30.9,230.9,30.9,231,31,231.1L31,231.1z"/>
				<path id="Path_97_" class="st5" d="M52.7,165.5c-0.6,15.7-3.8,31.2-5.8,46.7c-0.8,5.9-1.4,11.8-1.9,17.7c0,0.5,0.3,1,0.8,1
					s0.9-0.3,1-0.9c0.9-10,2.1-19.9,3.6-29.7c1.1-7.7,2.3-15.4,2.9-23.1c0.3-3.9,0.4-7.8,0.3-11.7C53.5,164.9,52.7,165,52.7,165.5
					L52.7,165.5z"/>
				<path id="Path_98_" class="st5" d="M51.5,154.9c1.7,20.3,4.4,40.6,6.1,60.9c0.4,4.8,0.6,9.7,1,14.5c0.1,0.4,0.4,0.7,0.8,0.6
					c0.4,0,0.7-0.3,0.7-0.7c0-4.3-0.2-8.7-0.6-13c-0.4-5.2-0.9-10.4-1.4-15.5c-1.1-10.8-2.4-21.5-3.7-32.3
					c-0.6-4.9-1.3-9.8-1.9-14.7C52.3,154,51.4,154.2,51.5,154.9L51.5,154.9z"/>
				<path id="Path_99_" class="st5" d="M73,135.1c0.9,24.9,2.1,49.7,2,74.6c0,3.4,0,6.8-0.1,10.3c0,1.7,0,3.4,0,5.1
					c-0.2,1.8-0.1,3.5,0.2,5.3c0.2,0.6,1.1,0.7,1.4,0.1c0.4-1.4,0.5-2.9,0.4-4.3c0.1-1.6,0.1-3.2,0.2-4.9c0.1-3.1,0.2-6.2,0.2-9.3
					c0.1-6.3,0.1-12.5,0-18.8c-0.1-12.3-0.7-24.6-1.5-36.9c-0.5-7.1-1.2-14.2-2-21.2C73.8,134.8,73.1,134.8,73,135.1L73,135.1z"/>
				<path id="Path_100_" class="st5" d="M60.1,231.4c0.5,2,3,2.7,4.7,2.7c2.7,0.2,5.3-0.3,7.7-1.5c0.8-0.4,0.5-1.9-0.5-1.6
					c-2.2,0.7-4.4,1.1-6.7,1.3c-1.7,0.1-3.3-0.1-4.7-1.3C60.5,230.7,60,231,60.1,231.4L60.1,231.4z"/>
				<path id="Path_101_" class="st5" d="M43,231c-0.8,1-1.3,2.1-1.5,3.3c-0.3,1.2-0.6,2.5-0.7,3.7c-0.1,1.2-0.2,2.5-0.1,3.7
					c-0.1,1.2,0,2.5,0.5,3.7c0.5,0.9,2.1,0.5,2.3-0.3c0.1-1.2,0.1-2.3-0.1-3.5c0-1.2,0-2.4,0-3.6s0.1-2.3,0.3-3.5
					c0.2-1.1,0.3-2.3,0.1-3.4c0-0.1-0.2-0.3-0.4-0.3C43.3,230.9,43.1,230.9,43,231L43,231z"/>
				<path id="Path_102_" class="st5" d="M42.5,245c-5.9,3.2-11.1,7.4-17.5,9.8c-1.2,0.5-8.8,3.2-8.8,0.8c0-1.4,1.4-2.8,2.4-3.6
					c1.2-1,2.5-1.8,4-2.5c3.9-2,8-3.6,11.8-5.8c0.5-0.3,0.7-0.9,0.5-1.4c-0.2-0.5-0.9-0.8-1.4-0.6c-2.1,0.9-4.2,2-6.2,3
					c-2.1,1-3.9,1.9-5.9,2.9c-3,1.5-6.8,3.7-7.5,7.2c-0.4,1.6,0.5,3.2,2.1,3.7c1.7,0.6,3.6,0.1,5.3-0.3c3.9-1,7.6-2.6,11-4.7
					c3.9-2.3,7.5-5.1,10.6-8.3C42.9,245.2,42.7,244.8,42.5,245L42.5,245z"/>
				<path id="Path_103_" class="st5" d="M33.5,232.2c-0.2,0.8-0.2,1.6-0.2,2.4c0,0.9-0.1,1.7-0.2,2.5c-0.1,0.8-0.2,1.6-0.4,2.4
					c-0.3,0.8-0.5,1.6-0.6,2.5c0,0.4,0.3,0.8,0.9,0.8c0.6,0.1,1.1-0.1,1.3-0.5c0.4-0.8,0.6-1.7,0.7-2.6c0.1-0.9,0.2-1.7,0.2-2.6
					c0.2-1.7-0.1-3.4-1-5c-0.1-0.1-0.2-0.2-0.4-0.1C33.7,232,33.5,232.1,33.5,232.2L33.5,232.2z"/>
				<path id="Path_104_" class="st5" d="M62.2,232.4c0.2,2.4,0.5,4.8,0.5,7.2c0,1.2,0,2.3,0,3.5c0,0.6-0.1,1.2-0.1,1.7
					c-0.2,0.6-0.1,1.2,0.2,1.7c0.3,0.4,1.1,0.6,1.6,0.3c1.1-0.8,0.9-2.4,0.9-3.4c0.1-1.3,0.1-2.6,0-3.9c-0.2-2.5-0.9-5-2-7.4
					C63.1,231.7,62.3,232,62.2,232.4L62.2,232.4z"/>
				<path id="Path_105_" class="st5" d="M71.3,231.2c-0.3,2-0.5,4-0.4,6.1c0,1,0.1,2,0.1,3c0,0.5,0,1,0,1.5c0,0.5,0.1,1.1,0.4,1.6
					c0.2,0.3,0.7,0.5,1.3,0.5s1-0.2,1.2-0.5c0.3-0.5,0.3-1.1,0.2-1.6c0-0.5,0-0.9-0.1-1.4c-0.1-1-0.2-2.1-0.3-3.1
					c-0.2-2-0.7-4-1.2-6c-0.1-0.2-0.3-0.3-0.6-0.3C71.6,230.9,71.3,231,71.3,231.2L71.3,231.2z"/>
				<path id="Path_106_" class="st5" d="M63.6,245.8c7,4.6,12.7,11.6,21.5,13c2.8,0.4,9.5,0.3,9.5-3.7c0-1.8-1.6-3.2-3-4.2
					c-1.9-1.4-3.8-2.7-5.7-4c-2.2-1.5-4.5-3-6.8-4.5c-1.9-1.2-4-2.9-6.4-2.9c-1.6,0-1.8,2.4-0.2,2.4c1.9,0,3.4,1.2,4.8,2.1
					c1.7,1.1,3.5,2.2,5.2,3.3c1.7,1.1,3.3,2.2,4.9,3.3c1.5,1,3.3,2,4.4,3.3c0.6,0.7,0.9,1.5-0.1,2.1c-0.8,0.4-1.7,0.6-2.6,0.7
					c-1.9,0.2-3.8,0-5.6-0.5c-3.4-1.1-6.6-2.8-9.4-4.9c-3.3-2.3-6.4-4.7-10.2-6.3C63.5,244.7,63.1,245.5,63.6,245.8L63.6,245.8z"/>
				<path id="Path_107_" class="st5" d="M65.6,241.5c1.6,1.7,3.4,3.3,5.3,4.7c1.9,1.5,3.8,3,5.7,4.4c1.6,1.2,3.5,1.9,5.6,1.9
					c2,0.1,4-0.5,5.6-1.7c0.4-0.3,0.4-0.8,0.2-1.2s-0.8-0.6-1.2-0.4c-1.7,0.7-3.2,1.3-5.1,1c-1.8-0.4-3.4-1.2-4.7-2.3
					c-3.4-2.5-6.7-5.4-10.5-7.2C65.9,240.4,65.2,241,65.6,241.5L65.6,241.5z"/>
				<path id="Path_108_" class="st5" d="M41.3,240.6c-3.4,0.2-6.1,2.3-8.6,4.3c-1.3,1-2.5,2-3.9,2.9c-0.7,0.5-1.5,0.9-2.3,1.3
					c-0.4,0.2-0.8,0.3-1.2,0.2c-0.2,0-0.8-0.3-0.7-0.5c0.3-1.3-1.7-2-2.1-0.7c-0.6,2.2,1.7,3.7,3.9,3.2c2-0.4,3.9-1.9,5.4-3.1
					c3.1-2.5,6-5.2,9.8-6.9C41.9,241.1,41.7,240.6,41.3,240.6L41.3,240.6z"/>
				<path id="Path_109_" class="st5" d="M38.6,111.3c-1.2,2-2.3,4-3.4,6.1c-1.2,2.3-2.7,4.3-4.5,6.2c-1.8,1.9-3.9,3.5-6,4.9
					c-1.1,0.7-2.2,1.3-3.4,1.9c-0.6,0.4-1.2,0.7-1.9,1c-0.3,0.1-1.9,0.4-1.3-0.4c0.8-1-0.6-1.9-1.5-1.4c-1.2,0.9-0.9,2.7,0.2,3.6
					c1.4,1.2,3.3,0.4,4.7-0.3c3.1-1.5,6-3.3,8.6-5.6c2.5-2.1,4.6-4.7,6.3-7.5c0.8-1.4,1.3-2.9,2.1-4.4c0.8-1.1,1.1-2.5,1-3.9
					c0-0.2-0.2-0.4-0.4-0.4C39,111.1,38.8,111.2,38.6,111.3L38.6,111.3z"/>
				<path id="Path_110_" class="st5" d="M37.2,48.7c-1.1,0.6-0.9,2.3-0.8,3.2c0,1.2,0,2.4,0.1,3.6c0,1.2,0.1,2.4,0.2,3.6
					c0,1.3,0.1,2.5,0.3,3.8c0.1,0.5,0.7,0.8,1.3,0.8c0.6,0,1.1-0.4,1.2-0.9c0.1-1.3,0.1-2.5,0-3.8c0-1.2-0.1-2.4-0.1-3.6
					c-0.1-1.2-0.1-2.4-0.2-3.6c-0.1-0.9,0-2.6-1.1-3.2C37.8,48.5,37.4,48.5,37.2,48.7L37.2,48.7z"/>
				<path id="Path_111_" class="st5" d="M69.2,81.7c0.5-1.6,0.7-3.3,0.6-5c0-1.8-0.1-3.5-0.1-5.3c0-0.8,0.2-2-1.1-2.4
					c-0.8-0.2-1.7,0.1-1.9,0.7c-0.1,0.4-0.2,0.7-0.1,1.1c0,1.8,0.2,3.5,0.3,5.3c0,1.9,0.4,3.8,1.4,5.6c0.1,0.1,0.3,0.2,0.5,0.2
					C68.9,82,69.1,81.9,69.2,81.7L69.2,81.7z"/>
				<path id="Path_112_" class="st5" d="M57.9,110.4c1.1,4.1,2.8,8.1,5.1,11.7c2.3,3.5,5.1,6.7,8.2,9.5c1,0.9,2.2,2,3.7,2.1
					c0.7,0,1.3-0.3,1.8-0.7c0.5-0.5,0.7-1.1,0.7-1.7c-0.1-1.4-0.5-2.8-1.1-4.1c-0.6-1.7-1.2-3.5-1.6-5.3c-0.6-2.6-1.3-5.3-1.8-7.9
					c-0.3-1.3-0.5-2.6-0.8-3.9c-0.2-1.3-0.5-2.6-0.9-3.9c-0.2-0.4-0.7-0.6-1.1-0.5c-0.4,0.1-0.8,0.4-0.9,0.8
					c0.1,1.9,0.4,3.8,0.9,5.6c0.4,2.1,0.9,4.3,1.4,6.4c0.7,3.3,1.7,6.6,2.8,9.8c0.2,0.4,1.3,2.9,0.7,3.2c-0.4,0.2-2-1.4-2.4-1.7
					c-2.8-2.5-5.4-5.3-7.6-8.3c-2.5-3.6-4.6-7.5-6.3-11.5C58.6,109.8,57.9,110,57.9,110.4L57.9,110.4z"/>
				<path id="Path_113_" class="st5" d="M47.1,47.9c0.7,4,1.7,7.9,2.5,11.9c0.4,2,0.7,3.9,1,5.9c0.2,1,0.3,2,0.4,3c0,1,0.2,2,0.6,3
					c0.2,0.4,0.6,0.6,1.1,0.5c0.4-0.1,0.8-0.4,0.8-0.9c0.1-1,0-2-0.3-3c-0.2-1.1-0.3-2.1-0.5-3.2c-0.3-2-0.7-4-1.1-5.9
					c-0.7-4-2-7.9-3.8-11.6c-0.1-0.2-0.3-0.2-0.4-0.2S47.1,47.7,47.1,47.9L47.1,47.9z"/>
				<path id="Path_114_" class="st5" d="M26.7,44.8c2.9,7.4,7.2,14.3,12.8,20.1c7,7,15.3,12.4,24.6,16.1c5.2,2.1,10.6,3.5,16.2,4.3
					c1.8,0.3,2-2.5,0.2-2.8c-9.5-1.5-18.5-4.9-26.6-9.9c-7.4-4.6-14.3-10.4-19.2-17.6c-2.4-3.5-4.6-7.1-7.3-10.5
					C27.1,44,26.5,44.4,26.7,44.8L26.7,44.8z"/>
				<path id="Path_115_" class="st5" d="M21.2,47c0.6,2,1.4,3.9,2.4,5.7c0.9,2,1.8,3.9,2.7,5.9c1.8,4.2,3.6,8.4,5.2,12.7
					c3.4,8.7,6.2,17.5,8.5,26.5c0.6,2.4,1.1,4.8,1.7,7.2c0.5,2.3,0.8,4.6,1.5,6.8c0.3,0.9,1.8,0.6,1.8-0.3c-0.1-2.1-0.4-4.1-0.8-6.2
					c-0.4-2.2-0.9-4.3-1.4-6.5c-1.1-4.5-2.3-9-3.7-13.4c-2.7-8.9-6-17.6-9.9-26.1c-1-2.3-2.1-4.5-3.3-6.7c-1-2-2.1-4.4-3.8-6.1
					C21.8,46.2,21.1,46.4,21.2,47L21.2,47z"/>
				<path id="Path_116_" class="st9" d="M43.8,99.1c-1.7-0.5-3.5-0.9-5.3-1.3c-1.7-0.4-3.4-0.6-5.1-0.7c-1.3,0.1-3,0.9-2.8,2.4
					c0.2,0.7,0.7,1.2,1.4,1.6c0.8,0.6,1.6,1.1,2.4,1.6l-0.1-1.9c-1.9,1.9-4.8,2.5-6.6,4.6c-1.7,2.2-1.3,5.2,0.9,6.9
					c2.2,1.9,5.5,2.1,8.4,1.9c1.6-0.1,3.1-0.4,4.6-0.8c1.5-0.4,2.9-1,4.2-1.9c0.3-0.3,0.4-0.7,0.2-1S45.4,110,45,110
					c-1.2,0.2-2.3,0.7-3.5,1c-1.2,0.3-2.4,0.5-3.7,0.7c-2.2,0.3-5.1,0.4-7.1-0.8c-0.8-0.5-1.4-1.3-1.6-2.3c0-0.9,0.5-1.8,1.3-2.4
					c1.7-1.4,3.9-2,5.5-3.6c0.3-0.2,0.4-0.6,0.4-0.9c0-0.4-0.2-0.7-0.5-0.9l-1.6-1.1l-0.8-0.5L33,99c-0.3-0.3-0.3-0.1-0.2,0.3
					l0.6-0.3c0.2,0,0.4,0,0.6,0c0.6,0,1.1,0.1,1.7,0.2c2.7,0.3,5.3,0.5,7.9,0.6C44,99.8,44.3,99.2,43.8,99.1L43.8,99.1z"/>
				<path id="Path_117_" class="st9" d="M45.5,112.2c4.1-0.6,8.2-1.4,12.3-2.3c3.8-0.8,7.6-1.6,11.3-2.6c5.6-1.5,11.4-4.5,12.4-10.9
					c0.2-2,0.2-4-0.1-5.9c-0.3-2.3-0.8-4.5-1.4-6.7c-0.3-1.1-2.1-0.9-1.8,0.3c1.3,6.1,3.8,13.9-2.3,18.3c-2.4,1.5-5,2.6-7.7,3.2
					c-3.5,0.9-7,1.6-10.5,2.4c-4.2,1-8.3,2.1-12.4,3.4C44.8,111.6,45,112.3,45.5,112.2L45.5,112.2z"/>
			</g>
			<g id="Group" transform="translate(68.952157, 72.303838)">
				<path id="Path_118_" class="st3" d="M14.6,108.3c2.1,7.9,9.8,13.1,18.2,12.4c2.7-0.2,2.7-4.3,0-4c-6.5,0.5-13.8-2.7-16.1-8.9
					c-0.1-0.4-0.4-0.6-0.8-0.7s-0.8,0-1.1,0.3C14.6,107.6,14.5,108,14.6,108.3L14.6,108.3z"/>
				<path id="Path_119_" class="st4" d="M74.3,57.9C64.4,111,40.9,163.6,49.9,218.5c2.3,14.2,7,28.2,14.7,40.4
					c4.2,6.7,14.3,0.8,10.7-6.2c-11.4-21.9-15.2-45.8-14-70.2c1.3-26.3,8.2-52,14.3-77.6c3.6-15.1,6.8-30.3,8.8-45.7
					C85,53.6,75.3,52.3,74.3,57.9L74.3,57.9z"/>
				<path id="Path_120_" class="st10" d="M107.7,58.2c4.1,5.6,7.3,11.9,9.3,18.5c1.9,6.6,3,13.3,4.5,20c1.9,8.5,4.2,17.2,2.8,26
					c-0.1,0.9-0.3,1.7-0.7,2.5c-0.6,0.9-1.5,1.4-2.6,1.5c-1.9,0.3-3.7,0.4-5.6,0.4c-3.7,0-7.3-0.4-10.9-1.2
					c-8.1-1.7-15.6-5.6-21.8-11.2c-0.9-0.8-2.3,0.4-1.4,1.2c5.7,5.3,12.6,9.1,20.1,11.1c3.8,1.1,7.7,1.7,11.6,1.8
					c1.9,0.1,3.8,0,5.6-0.1c1.8-0.1,4-0.2,5.5-1.4c1.5-1.3,1.7-3.1,1.9-4.8c0.3-2.4,0.5-4.7,0.4-7.1c-0.3-4.6-0.9-9.2-2-13.7
					c-0.9-4.1-1.9-8.1-2.7-12.2c-0.7-3.5-1.5-6.9-2.3-10.4c-2.1-7.9-5.5-15.3-11-21.5c-0.2-0.1-0.4-0.2-0.6,0
					C107.7,57.8,107.6,58,107.7,58.2L107.7,58.2z"/>
				<path id="Path_121_" class="st10" d="M99.8,80.7c1,4.5,2.2,8.9,3.5,13.2c1.2,4.4,2.5,9,3.9,13.4c0.3,0.9,1.8,0.4,1.5-0.5
					c-1.2-4.4-2.6-8.8-3.9-13.2c-1.3-4.4-2.7-8.9-4.3-13.2C100.3,80.1,99.7,80.3,99.8,80.7L99.8,80.7z"/>
				<path id="Path_122_" class="st10" d="M110.7,107.8c-3.7,0.9-7.5,1.5-11.3,1.7c-3.9,0.1-7.8-0.1-11.7-0.6
					c-0.9-0.1-1.2,1.1-0.3,1.3c3.9,0.8,7.9,1,11.9,0.7c4-0.2,8-1.1,11.7-2.4C111.3,108.3,111.1,107.7,110.7,107.8L110.7,107.8z"/>
				<path id="Path_123_" class="st10" d="M86.8,110.1c-0.2-0.4,0-0.4,0-0.8c-0.1-0.3-0.3-0.6-0.6-0.8c-0.6-0.5-1.3-1-2-1.3
					c-1.5-0.7-3.2-1-4.9-1c-3.8,0.1-7.4,1.7-10,4.4c-1.4,1.4-2.7,3-3.8,4.7c-0.5,0.8-1.1,1.6-1.6,2.4c-0.6,0.8-1.1,1.8-1.3,2.8
					c-0.2,1.9,1.8,2.8,3.5,2.7c2.1-0.1,4.2-0.5,6.1-1.2c4.5-1.4,8.4-4,11.5-7.4c0.8-0.9-0.8-1.9-1.6-1c-2.3,2.5-5.1,4.5-8.2,5.8
					c-1.6,0.7-3.3,1.2-5,1.6c-0.8,0.2-3.8,1-4.3-0.1c-0.4-0.7,0.7-1.9,1-2.5c0.5-0.8,0.9-1.5,1.4-2.2c0.9-1.4,1.9-2.7,3-3.9
					c2.1-2.4,4.9-3.9,8-4.4c1.6-0.2,3.2-0.1,4.8,0.3c0.8,0.2,1.5,0.6,2.1,1c0.2,0.2,0.5,0.4,0.8,0.6c0.4,0.2,0.7,0,1,0.3
					C86.7,110.3,86.8,110.2,86.8,110.1L86.8,110.1z"/>
				<path id="Path_124_" class="st10" d="M79.3,116.8c-1.7,2.5-2.5,5.5-2.1,8.5c0.3,2.7,1.7,5.2,3.3,7.4c2,2.9,4.3,5.6,6.4,8.5
					c2.2,3.1,4.3,6.5,6.3,9.8c2.2,3.6,4.3,7.4,6.9,10.9c0.5,0.7,1.7-0.1,1.3-0.8c-1.8-3.1-3.9-6.1-5.8-9.2s-3.8-6.1-5.8-9.1
					s-4.2-5.8-6.5-8.7c-1.7-2.1-3.5-4.4-4.3-7c-0.5-1.5-0.7-3-0.6-4.5c0.3-1.9,0.8-3.7,1.4-5.5c0-0.1,0-0.3-0.1-0.3
					S79.4,116.7,79.3,116.8L79.3,116.8z"/>
				<path id="Path_125_" class="st10" d="M101,161.3c3.8-1.2,7.6-2.6,11.2-4.3c3.5-1.5,7-3.2,10.4-4.9c6.9-3.4,13.7-7,20.5-10.5
					c4-2.1,8.1-4.2,12.2-6.2c1-0.5,0.3-2.1-0.7-1.6c-13.9,6.8-27.4,14.4-41.4,21c-4.1,1.9-8.4,3.7-12.4,5.8
					C100.4,160.8,100.6,161.4,101,161.3L101,161.3z"/>
				<path id="Path_126_" class="st10" d="M126.3,98.7c2.5-1.8,5.6-4.1,8.8-4c3.5,0.1,5.2,3.3,6.7,6.1c3.4,6.4,6.4,13.1,8.8,20
					c0.7,1.9,1.3,3.8,1.9,5.7c0.6,2,1,4,1.7,6c0.3,0.9,1.6,0.4,1.5-0.5c-0.4-1.9-0.9-3.8-1.6-5.7c-0.6-1.9-1.2-3.7-1.8-5.6
					c-1.3-3.7-2.8-7.4-4.4-11.1c-1.6-3.6-3.5-7.2-5.4-10.6c-1.6-2.8-3.5-5.5-6.9-5.8c-3.7-0.3-7.3,2.4-9.8,4.9
					c-0.1,0.1-0.2,0.3,0,0.5S126.1,98.8,126.3,98.7L126.3,98.7z"/>
				<path id="Path_127_" class="st10" d="M87.8,116c-0.8,0.5-1.4,1.3-1.6,2.1c-0.2,1.1-0.2,2.2,0,3.3c0.7,2.9,1.8,5.7,3.3,8.2
					c3.5,6.3,7.8,12.1,12.2,17.8c1.6,2.1,3.1,4.4,4.8,6.4c0.3,0.3,0.7,0.4,1,0.2s0.5-0.6,0.3-1c-0.9-1.9-2.6-3.7-3.9-5.4
					c-2-2.6-4-5.2-6-7.9c-2.1-2.9-4.1-5.8-6-8.8c-1.7-2.6-3-5.3-4-8.2c-0.4-1.2-0.6-2.4-0.6-3.6c0-0.9,0.3-1.9,0.8-2.6
					C88.4,116.1,88,115.8,87.8,116L87.8,116z"/>
				<path id="Path_128_" class="st10" d="M108.8,55.9c-6.6,1.4-11,6.8-14,12.4c-3.6,6.9-6,14.3-7.1,21.9c-0.4,2.3-0.6,4.5-0.7,6.8
					c-0.2,2.2-0.2,4.5,0,6.7c0.1,0.4,0.5,0.7,0.9,0.7c0.4,0,0.8-0.4,0.8-0.8c0.3-3.8,0.2-7.6,0.7-11.4c0.5-3.8,1.3-7.6,2.4-11.3
					c1.9-6.3,4.4-13,8.8-18.1c2.3-2.7,5.2-4.7,8.6-5.9c0.3-0.1,0.4-0.5,0.3-0.7C109.4,56.1,109.1,55.9,108.8,55.9L108.8,55.9z"/>
				<path id="Path_129_" class="st10" d="M108.2,50.3c-7.9,1.5-14.6,7.3-19.1,13.6c-5.3,7.4-7.8,16.3-9.1,25.2
					c-0.8,5.6-1.1,11.3-1.4,17c-0.1,1.2,1.8,1.3,1.8,0.2c0.5-9.6,0.9-19.5,3.9-28.8c2.4-7.5,6.5-14.6,12.6-19.8
					c3.4-2.8,7.3-5.1,11.4-6.8c0.2-0.1,0.3-0.3,0.2-0.4C108.6,50.3,108.4,50.2,108.2,50.3L108.2,50.3z"/>
				<path id="Path_130_" class="st10" d="M97.7,4.9c-1.2,0.9-2.2,2.2-3.4,3.2c-1.3,1-2.8,1.9-4.3,2.5c-1.5,0.6-3.1,1.1-4.8,1.3
					c-0.8,0.1-1.6,0.2-2.4,0.1c-0.9,0-1.7-0.2-2.6-0.1s-0.8,1.2-0.1,1.5c1.6,0.6,3.7,0.3,5.4,0.1c3.5-0.5,6.9-2,9.6-4.3
					c1.2-1,2.7-2.4,3.1-4c0-0.1,0-0.3-0.1-0.3S97.8,4.8,97.7,4.9L97.7,4.9z"/>
				<path id="Path_131_" class="st10" d="M74,30.8c2.9-1.6,0.4-5,2.2-7.1l-1.3,0.1c0.8,0.8,1.3,1.9,1.3,3c-0.2,0.4,0.1,0.8,0.5,1
					s0.9-0.1,1.1-0.5c0.5-0.6,1.4-1,2.3-0.9c0.3,0,0.7-0.1,0.9-0.4c0.2-0.2,0.2-0.6,0.1-0.8c-0.8-1.6-1.3-3.4-1.6-5.2
					c-0.2-1.8-0.2-3.6,0.1-5.3c0.1-0.9-1.6-1.3-1.8-0.4c-0.8,3.9-0.3,7.9,1.6,11.5l1-1.2c-1.6-0.1-3.1,0.5-3.9,1.7l1.6,0.5
					c0-1.5-0.6-3-1.8-4.1c-0.2-0.2-0.4-0.2-0.7-0.2s-0.5,0.1-0.6,0.3c-0.7,1.1-1,2.3-0.9,3.6c0.1,1.2,0.4,2.7-0.8,3.5
					C72.6,30.4,73.4,31.1,74,30.8L74,30.8z"/>
				<path id="Path_132_" class="st10" d="M98.8,3.3c-1.1-1.5-3.2-2.4-5-2.8c-2-0.5-4-0.6-6-0.4C83.5,0.4,79,1.5,75.6,4.4
					c-2.3,2.1-4.1,4.7-5.3,7.6c-1.4,3.2-2.2,6.6-2.2,10.1c0,3.5,1,7.1,3.9,9.3c0.7,0.5,1.7-0.5,1.1-1.2c-4.3-4.3-3.5-11-1.6-16.3
					c0.9-2.7,2.4-5.2,4.4-7.4C78.5,3.9,82.3,2.6,86,2c2.1-0.4,4.3-0.4,6.4-0.2c1,0.1,2,0.4,2.9,0.7c1,0.5,1.9,1,2.8,1.6
					c0.2,0.2,0.6,0.1,0.8-0.1S99,3.5,98.8,3.3L98.8,3.3z"/>
				<path id="Path_133_" class="st10" d="M93.6,36.6c-0.3,0.7-0.5,1.4-0.7,2.2c-0.2,0.8-0.3,1.6-0.5,2.4c-0.2,0.8-0.3,1.5-0.5,2.3
					c-0.2,0.8-0.3,1.5-0.3,2.3c0.1,0.4,0.7,0.6,1,0.2c0.3-0.7,0.5-1.5,0.6-2.3c0.1-0.8,0.3-1.5,0.4-2.3c0.4-1.5,0.5-3.1,0.5-4.7
					C94.1,36.4,93.7,36.4,93.6,36.6L93.6,36.6z"/>
				<path id="Path_134_" class="st10" d="M78.6,30.2c-0.2,0.9-0.3,1.9-0.4,2.9c-0.2,1-0.4,2-0.7,3c-0.6,2-1.5,3.9-2.7,5.6
					c-0.6,0.9,0.8,1.8,1.4,0.9c1.3-1.9,2.2-4,2.8-6.2c0.5-2,0.9-4.4,0.2-6.3c0-0.1-0.1-0.1-0.2-0.1C78.8,30,78.7,30.1,78.6,30.2
					L78.6,30.2z"/>
				<path id="Path_135_" class="st10" d="M74.6,45.9c0.1,1.4,1.2,2.6,2.3,3.3c1.4,0.8,2.9,1.2,4.5,1.1c1.9-0.2,3.7-0.5,5.5-1
					c2-0.4,4-0.9,5.9-1.6c0.8-0.3,0.3-1.6-0.4-1.5c-3.3,0.5-6.5,1.7-9.8,2.3c-1.5,0.4-3.1,0.3-4.6-0.2c-1.2-0.5-2.2-1.4-2.8-2.7
					C75,45.2,74.6,45.5,74.6,45.9L74.6,45.9z"/>
				<path id="Path_136_" class="st10" d="M19.5,85.5c-0.3-0.9-0.8-1.8-1.5-2.5c-0.7-0.9-1.3-1.8-1.9-2.7c-1.3-1.9-2.4-3.9-3.5-5.9
					c-2-4-3.1-8.3-3.4-12.7c-0.1-1.2-1.9-0.9-1.9,0.3c0.2,4.6,1.4,9.1,3.5,13.2c1,2.1,2.2,4.1,3.5,5.9c0.7,0.9,1.4,1.9,2.2,2.7
					c0.7,0.8,1.4,1.8,2.5,2.1c0.1,0,0.3,0,0.4-0.1C19.4,85.7,19.5,85.6,19.5,85.5L19.5,85.5z"/>
				<path id="Path_137_" class="st10" d="M20.4,72.5c3.7,2.6,7.4,5.3,11,7.9c1.8,1.3,3.6,2.6,5.4,3.9c0.9,0.7,1.8,1.4,2.6,2
					c0.8,0.8,1.7,1.4,2.7,1.9c0.7,0.2,1-0.5,0.7-1c-0.7-0.8-1.5-1.5-2.4-2.1c-0.9-0.7-1.8-1.3-2.7-2c-1.8-1.4-3.7-2.7-5.5-4
					c-3.8-2.5-7.7-4.9-11.7-7C20.4,72,20.1,72.4,20.4,72.5L20.4,72.5z"/>
				<path id="Path_138_" class="st10" d="M41.2,85.8c4.1-5.7,7.1-12,10.3-18.2c3-6,6.2-12,10.9-16.8c2.6-2.6,5.5-4.8,8.7-6.5
					c0.3-0.2,0.5-0.6,0.3-0.9c-0.2-0.3-0.5-0.5-0.9-0.4C57.7,48.6,52,62.4,46.3,74.2c-1.8,3.8-3.6,7.6-5.7,11.3
					c-0.1,0.1,0,0.3,0.1,0.4C40.8,86,41,85.9,41.2,85.8L41.2,85.8z"/>
				<path id="Path_139_" class="st10" d="M60.1,203.7c2.4,8,5.3,15.9,8.2,23.7c1.4,4,2.9,7.9,4.3,11.9c0.7,2,1.4,3.9,2.1,5.9
					c0.6,2,1.4,3.9,2.2,5.8c1.8,3.7,4.3,7.1,5,11.3c0.1,0.5,0.9,0.4,0.8-0.1c-0.3-3.6-2.1-6.8-3.7-9.9c-1.8-3.6-2.9-7.6-4.3-11.4
					c-2.9-8-5.9-15.9-8.9-23.8c-1.7-4.5-3.5-9-5.3-13.5C60.4,203.4,60,203.5,60.1,203.7L60.1,203.7z"/>
				<path id="Path_140_" class="st10" d="M47.1,153.5c-2.3,7.2-3.6,14.6-4.8,22c-0.6,3.8-1.1,7.5-1.8,11.3s-1.7,7.5-1.6,11.3
					c0.1,3.6,1.5,7,2.8,10.3c1.4,3.6,2.8,7.1,4.3,10.7c2.9,7.1,5.8,14.2,8.8,21.2c3.4,8,7.1,15.9,11,23.7c0.2,0.3,0.6,0.4,1,0.2
					c0.3-0.2,0.5-0.5,0.4-0.9c-6.5-13.6-12.5-27.5-18.2-41.5c-1.4-3.4-2.8-6.9-4.2-10.3c-1.4-3.4-3.1-6.9-3.9-10.5
					c-0.9-3.8-0.1-7.4,0.5-11.2c0.7-3.7,1.2-7.4,1.7-11.1c1.2-8.4,2.4-16.9,4.6-25.1C48,153.3,47.3,153,47.1,153.5L47.1,153.5z"/>
				<path id="Path_141_" class="st10" d="M104.2,159.8c-1.6,3.2-2.2,6.9-3,10.4c-0.8,3.5-1.4,7.1-2,10.7c-1.1,7.2-1.9,14.5-2.4,21.9
					c-1,14.7-1.1,29.6-1.3,44.3c-0.1,4.2-0.1,8.3-0.3,12.5c-0.1,4.2-0.4,8.5-0.4,12.7c0,0.4,0.3,0.8,0.7,0.9c0.4,0,0.8-0.3,0.8-0.7
					c0.8-7.4,0.8-14.9,1-22.3c0.2-7.4,0.3-14.7,0.4-22c0.3-14.6,0.9-29.2,2.7-43.7c0.5-4,1.2-8,1.9-12c0.4-2.1,0.8-4.2,1.2-6.3
					c0.5-2,0.9-4.1,1.1-6.1C104.6,159.7,104.3,159.6,104.2,159.8L104.2,159.8z"/>
				<path id="Path_142_" class="st10" d="M71.7,162.6c-1.2,11.1,1.4,21.9,3.4,32.8c1,5.2,1.4,10.5,1.4,15.7c0,5.5-0.4,11-0.8,16.5
					c-0.4,5.8-1.1,11.7-0.6,17.5c0.1,0.8,1.4,0.7,1.5-0.1c0.5-5.2,0.7-10.5,1.1-15.7c0.4-5.4,0.8-10.9,0.9-16.3
					c0.1-5.2-0.3-10.3-1.2-15.5c-0.9-5.4-2.2-10.7-3.3-16.1c-1.3-6.2-1.8-12.5-1.5-18.8c0-0.3-0.2-0.5-0.5-0.5
					C72,162.1,71.7,162.3,71.7,162.6L71.7,162.6z"/>
				<path id="Path_143_" class="st10" d="M86.9,269.9c0.7,0.3,1.4,0.5,2.1,0.6c0.8,0.1,1.6,0.2,2.4,0.2c1.6,0,3.1-0.2,4.6-0.6
					c0.7-0.2,0.5-1.2-0.2-1c-1.5,0.3-2.9,0.5-4.4,0.6c-0.7,0-1.4,0-2.2,0c-0.7,0-1.5-0.1-2.3-0.2c-0.1,0-0.2,0.1-0.2,0.2
					C86.8,269.8,86.8,269.9,86.9,269.9z"/>
				<path id="Path_144_" class="st10" d="M76.7,278.1c-4.5-0.1-8.9-0.6-13.4-0.8c-2.1-0.1-4.2-0.1-6.3,0.2c-1.1,0.1-2.1,0.3-3.1,0.6
					c-1,0.1-1.9,0.6-2.6,1.3c-0.4,0.4,0,1.1,0.5,1.1c0.9,0.1,1.9-0.4,2.8-0.6c1-0.2,2.1-0.4,3.1-0.5c2.1-0.2,4.3-0.2,6.4-0.1
					c4.2,0.2,8.5,0.7,12.7-0.3C77.2,278.8,77.2,278.1,76.7,278.1L76.7,278.1z"/>
				<path id="Path_145_" class="st10" d="M75.5,268.4c0.5,1,1.3,1.7,2.3,2c1,0.3,2,0.4,3,0.2c1-0.2,2-0.6,2.8-1.3
					c0.8-0.7,1.4-1.7,1.6-2.8c0.1-0.6-0.7-0.8-1-0.4c-1.8,3.1-5.5,3.9-8.3,1.9C75.7,267.8,75.3,268.1,75.5,268.4L75.5,268.4z"/>
				<path id="Path_146_" class="st10" d="M74.2,267.5c-5.8,1.1-11.7,1.1-17.5,1.8c-2.3,0.3-4.8,0.8-6.5,2.5
					c-1.4,1.3-2.2,3.6-0.9,5.2c0.6,0.8,1.8-0.1,1.5-0.8c-1.6-4.7,5.9-5.2,9.2-5.5l7.9-0.8c2.3-0.2,4.7-0.5,6.6-1.7
					c0.1-0.1,0.1-0.2,0.1-0.4C74.5,267.6,74.4,267.5,74.2,267.5L74.2,267.5z"/>
				<path id="Path_147_" class="st10" d="M19.2,85.1c0.9-0.5,1.8-1,2.6-1.7c0.6-0.6,1.1-1.2,1.5-1.9c0.4-0.7,0.7-1.4,1-2.1
					c0.2-0.4,0.3-0.8,0.5-1.2c0.3-0.5,0.4-1,0.4-1.5c0-0.2-0.2-0.4-0.4-0.4c-0.2-0.1-0.5,0-0.7,0.1c-0.4,0.4-0.6,0.8-0.8,1.3
					c-0.2,0.4-0.3,0.8-0.5,1.2c-0.3,0.7-0.6,1.4-0.9,2.1c-0.3,0.6-0.7,1.2-1.2,1.8c-0.3,0.3-0.5,0.7-0.8,1c-0.4,0.4-0.7,0.8-1.1,1.1
					c-0.1,0.1-0.1,0.2,0,0.4S19,85.1,19.2,85.1L19.2,85.1z"/>
				<path id="Path_148_" class="st10" d="M24.2,92.3c2-1.3,3.6-3.1,4.7-5.1c0.6-1,1-2,1.4-3.1c0.4-1.1,0.6-2.2,0.5-3.4
					c-0.1-0.3-0.3-0.4-0.5-0.5c-0.3,0-0.5,0.1-0.6,0.4c-0.3,1-0.3,2-0.6,3c-0.3,1-0.7,2-1.2,3c-1.1,1.9-2.5,3.6-4.2,5
					C23.3,92,23.8,92.6,24.2,92.3L24.2,92.3z"/>
				<path id="Path_149_" class="st10" d="M70,44.8c-0.5,2.4-0.7,4.8-0.9,7.2c-0.2,2.5-0.4,5-0.6,7.5c-0.4,5.2-0.6,10.3-0.8,15.5
					c-0.5,10.3-0.9,20.6-1.7,30.8c-0.5,5.6-1.1,11.2-1.9,16.8c-0.1,0.9,1.2,1,1.4,0.1c3.3-20.1,3.4-40.6,4.2-60.8
					c0.1-2.8,0.2-5.6,0.4-8.4c0.2-2.8,0.5-5.7,0.5-8.5C70.6,44.6,70.1,44.4,70,44.8L70,44.8z"/>
				<path id="Path_150_" class="st10" d="M92.2,47.3c-0.8,2.1-1.4,4.2-1.8,6.4c-0.2,1.2-0.2,2.4-0.3,3.6c-0.2,4-2.3,7.9-4.1,11.5
					c-0.4,0.8,1,1.2,1.4,0.4c1.9-3.6,4-7.5,4.2-11.6c0.1-1.2,0-2.3,0.1-3.5c0.3-2.2,0.8-4.4,1.5-6.6C93.4,47.1,92.5,46.7,92.2,47.3z
					"/>
				<path id="Path_151_" class="st10" d="M61.5,153.8c1.5-4.1,2.7-8.2,3.5-12.4c1-4.3,1.8-8.6,2.3-12.9c0.1-0.5-0.9-0.6-1-0.1
					c-0.7,4.3-1.5,8.5-2.5,12.7s-2.1,8.4-3,12.6C60.8,154,61.4,154.1,61.5,153.8L61.5,153.8z"/>
				<path id="Path_152_" class="st10" d="M41.5,149.8c2.6,2.8,5.9,4.8,9.5,5.5c3.9,0.8,7.9,0.3,11.8-0.5c0.3-0.1,0.5-0.4,0.5-0.8
					c-0.1-0.4-0.3-0.6-0.7-0.6c-3.7,0.5-7.4,1-11.1,0.5c-3.6-0.5-6.9-2.2-9.6-4.7C41.6,149,41.2,149.5,41.5,149.8L41.5,149.8z"/>
				<path id="Path_153_" class="st10" d="M52.8,104.9c-1.6,7.6-3.2,15.3-4.8,22.9c-1.6,7.5-3.5,14.9-5,22.4c-0.1,0.6,0.9,0.8,1,0.2
					c2.3-7.4,3.8-15,5.4-22.5c1.6-7.5,3-15.3,4.1-23C53.6,104.5,52.9,104.4,52.8,104.9L52.8,104.9z"/>
				<path id="Path_154_" class="st10" d="M78.9,157.2c1.8,1.2,3.8,2.2,5.9,3c1.8,0.8,3.7,1.5,5.6,2c4,1.1,8.1,1.1,12.1,0
					c0.4-0.1,0.6-0.5,0.5-0.9c-0.1-0.4-0.4-0.7-0.8-0.6c-3.9,0.7-8,0.6-11.9-0.4c-1.8-0.5-3.5-1.1-5.3-1.8c-1.9-0.8-4-1.7-6-2
					c-0.2,0-0.3,0.1-0.4,0.3S78.7,157.1,78.9,157.2L78.9,157.2z"/>
				<path id="Path_155_" class="st10" d="M78.5,157.1c3-7.6,4.7-15.5,5.1-23.6c0-0.3-0.2-0.6-0.6-0.6c-0.3,0-0.6,0.2-0.7,0.5
					c-0.3,4-0.8,8-1.6,11.9c-0.9,3.9-2,7.8-2.9,11.7C77.8,157.3,78.4,157.4,78.5,157.1L78.5,157.1z"/>
				<path id="Path_156_" class="st10" d="M118,71.5c-0.7,1-0.3,2.4,0,3.6c0.3,1.2,0.7,2.4,1.2,3.6c1,2.4,2.4,4.7,4,6.7
					c3.4,4.2,7.5,7.7,12.2,10.2c0.6,0.4,1.3-0.6,0.7-1c-4.2-2.8-8.1-6.2-11.3-10.1c-1.5-1.9-2.8-4-3.8-6.3c-0.5-1.1-0.9-2.2-1.2-3.4
					c-0.3-1.1-0.3-2.6-1.2-3.4C118.4,71.3,118.1,71.3,118,71.5L118,71.5z"/>
				<path id="Path_157_" class="st10" d="M54.6,105.3c3.6-3.6,4.5-9.1,5.8-14c1.5-6,3.3-11.9,4.5-18c0.1-0.4-0.5-0.5-0.7-0.2
					c-1.9,5.7-3.2,11.6-4.7,17.4c-1.3,4.9-2.1,10.5-5.1,14.5C54.3,105.3,54.5,105.5,54.6,105.3L54.6,105.3z"/>
				<path id="Path_158_" class="st10" d="M20.6,72.6c1-1.8,3.5-2.8,3.7-5.1c0.1-2-1.4-3.7-2.7-5.1c-1.5-1.5-3.3-2.8-4.7-4.3
					c-2.1-2.1-4.2-4-6.3-6.1c-1-1.1-1.9-2.2-2.9-3.3c-0.8-0.9-1.9-1.5-3.1-1.7c-1.7-0.2-3.9,1.4-4.5,3c-0.2,0.4-0.2,0.8,0,1.1
					c0.1,0.2,0.2,0.3,0.3,0.4c0.3,0.4-0.1-0.1,0,0l0.9,1.1l3.5,4.2c1.5,1.8,3.1,3.4,4.7,5.1l4.1,4.2l2.2,2.3
					c0.6,0.8,1.3,1.4,2.2,1.8c0.3,0.1,0.7,0,1-0.3s0.3-0.6,0.2-1c-0.5-1.4-1.9-2.4-2.9-3.5l-3.3-3.4c-1.7-1.7-3.5-3.4-5-5.2
					c-1.9-2.1-3.6-4.3-5.4-6.5c-0.1-0.1-0.2-0.2-0.3-0.3c-0.8-0.7,0.4,0.5,0,0.6c0.1,0,0.4-0.5,0.5-0.6c0.3-0.3,0.7-0.6,1.1-0.8
					c0.8-0.4,1.6,0.2,2.1,0.8C6.8,51,7.5,52,8.4,52.9c3.2,3.3,6.5,6.4,10,9.3c0.9,0.7,1.7,1.5,2.4,2.3c0.7,0.7,1.3,1.5,1.7,2.5
					c0.3,0.9-0.6,1.7-1.3,2.4c-0.8,0.7-1.5,1.6-2,2.5C18.9,72.7,20.2,73.4,20.6,72.6L20.6,72.6z"/>
				<path id="Path_159_" class="st11" d="M81.1,51.1c-1.7,2.1-3,4.6-3.6,7.3c-1.4-1.6-2.9-3.2-4.5-4.7"/>
				<path id="Path_160_" class="st11" d="M81.9,51.1c0.7,2.5,1.7,4.9,2.8,7.3c1.8-1.7,3.8-3,6.1-3.8"/>
				<path id="Path_161_" class="st10" d="M103.8,52.1c-1-2-2.2-3.7-3.8-5c-1.6-1.4-3.3-2.5-5.1-3.3c-0.8-0.3-1.1,1-0.4,1.4
					c1.7,0.8,3.3,1.9,4.8,3.1c1.5,1.3,2.6,3,4,4.3c0.1,0.1,0.3,0.1,0.4,0C103.8,52.5,103.9,52.3,103.8,52.1L103.8,52.1z"/>
				<path id="Path_162_" class="st10" d="M108,50.1c0.2,0.2,0.4,0.5,0.6,0.7c0.2,0.2,0.4,0.5,0.5,0.7c0.3,0.5,0.6,1,0.9,1.5
					c0.3,0.5,0.5,1.1,0.7,1.6l0.1,0.4v0.1c0-0.1,0-0.1,0,0s0,0.2,0.1,0.2l0.1,0.5c0.1,0.3,0.2,0.5,0.5,0.7c0.3,0.2,0.8,0.2,1.1-0.2
					c0.4-0.7,0-1.7-0.3-2.4c-0.3-0.7-0.6-1.3-1-1.9c-0.4-0.6-0.8-1.1-1.3-1.5c-0.2-0.2-0.5-0.4-0.7-0.6c-0.3-0.2-0.6-0.4-0.9-0.5
					C108,49.3,107.7,49.8,108,50.1L108,50.1z"/>
				<path id="Path_163_" class="st10" d="M94.9,273.2c1.6,2.3,1.1,5.1-0.7,7.2c-1.9,2.2-4.8,3.5-7.9,3.4c-2.8-0.1-5.8-1.2-7.2-3.7
					c-0.7-1-0.7-2.3-0.2-3.4c0.7-1.2,2.1-1.8,3.3-2.4c1.5-0.6,2.8-1.6,3.7-2.8c0.8-1.1,0.8-2.6-0.1-3.7c-0.6-0.7-1.8,0.2-1.2,0.9
					c1,1.3-0.7,2.9-1.7,3.5c-1.4,0.8-3,1.3-4.3,2.4c-2.4,2.1-2,5.1-0.1,7.4c4.2,5,13.1,4,16.9-0.8c2.1-2.6,2.6-6.2,0.3-8.8
					C95.3,271.9,94.5,272.6,94.9,273.2L94.9,273.2z"/>
				<path id="Path_164_" class="st10" d="M99,11.3c1.4,2.9,2.5,6,3.2,9.1c0.7,2.8,0.9,5.8,0.6,8.7c-0.1,1.2-0.7,2.3-1.6,3.1
					c-1.2,0.9-2.7,0.8-4.1,0.7c-1.6-0.2-3.2-0.5-4.7-0.9c-1.6-0.4-3.1-1.1-4.7-1.4c-0.8-0.1-1.1,1-0.5,1.4c1.5,1,3.5,1.5,5.3,1.9
					c1.7,0.4,3.4,0.7,5.1,0.9c1.6,0.2,3.2-0.1,4.6-1c1.1-0.8,1.9-2,2.2-3.4c0.8-3.1,0.3-6.7-0.4-9.8c-0.7-3.5-2.1-6.9-4.1-9.9
					C99.5,10.2,98.7,10.7,99,11.3L99,11.3z"/>
				<path id="Path_165_" class="st10" d="M54.5,104.2c-0.9,1-2,1.8-3.3,2.3c-1.6,0.5-3.2,0.5-4.8,0c-3.5-1.1-6.6-3.4-9.6-5.4
					c-6.2-4.1-12.3-8.5-17.3-14c-0.8-0.9-2.3,0.3-1.5,1.2c4.4,4.7,9.3,8.9,14.7,12.5c2.7,1.8,5.4,3.6,8.1,5.2
					c2.5,1.5,5.3,2.8,8.3,2.6c2.2-0.1,5.9-1.4,6-4.1c0-0.2-0.1-0.3-0.2-0.4C54.8,104.1,54.6,104.1,54.5,104.2L54.5,104.2z"/>
				<path id="Path_166_" class="st10" d="M70,163.9c-1.5,2.6-2.7,5.3-3.6,8.2c-1,2.9-1.9,5.8-2.6,8.8c-1.6,5.8-2.6,11.7-2.9,17.7
					c-0.1,3.2,0.8,6.1,1.6,9.2c0.9,3,1.7,5.9,2.6,8.9c1.8,6,3.8,11.9,5.8,17.9c2.3,6.8,4.7,13.7,7.4,20.4c0.3,0.8,1.5,0.2,1.2-0.6
					c-4-11.8-8.1-23.5-11.7-35.3c-0.9-3-1.9-5.9-2.8-8.9c-0.9-3-2-5.9-2.4-9s0.2-6.2,0.6-9.2c0.4-3,0.9-5.9,1.6-8.8
					c0.7-3.2,1.6-6.4,2.6-9.6c1-3.2,2.3-6.2,3.1-9.5C70.5,163.8,70.2,163.6,70,163.9L70,163.9z"/>
				<path id="Path_167_" class="st4" d="M73.1,165.9c3,14.2,5.9,28.5,7.3,42.9c1.4,14.5,1.2,29,0.6,43.6c-0.1,3.3,3,6.2,6.3,6.2
					c3.7,0,6-2.8,6.3-6.2c3.3-30.1-0.3-60.6-10.6-89.2c-0.8-2.6-3.6-4.1-6.3-3.4C74.1,160.6,72.5,163.3,73.1,165.9L73.1,165.9z"/>
			</g>
			
				<radialGradient id="Oval-Copy-4_2_" cx="547.2551" cy="483.0758" r="0.5" gradientTransform="matrix(3.104992e-15 50.7084 158.2212 -9.688262e-15 -74990.6641 -27493.1172)" gradientUnits="userSpaceOnUse">
				<stop  offset="0" style="stop-color:#275DB5"/>
				<stop  offset="1" style="stop-color:#115A7E;stop-opacity:0"/>
			</radialGradient>
			<ellipse id="Oval-Copy-4" class="st12" cx="1442.2" cy="257.3" rx="96.6" ry="25.4"/>
			
				<radialGradient id="Oval-Copy-4_3_" cx="547.2551" cy="483.0758" r="0.5" gradientTransform="matrix(3.104979e-15 50.7084 158.2205 -9.688262e-15 -75294.0547 -27451.0391)" gradientUnits="userSpaceOnUse">
				<stop  offset="0" style="stop-color:#275DB5"/>
				<stop  offset="1" style="stop-color:#115A7E;stop-opacity:0"/>
			</radialGradient>
			<ellipse id="Oval-Copy-4_1_" class="st13" cx="1138.4" cy="299.4" rx="278" ry="25.4"/>
			<g id="Group-12" transform="translate(992.159829, 2.157804)">
				<path id="Path_168_" class="st14" d="M31.7,15.4C25.2,20,20,28.6,24.2,36.4c1.7,3.2,6.2,0.4,4.7-2.8c-2.7-6,2.6-10.9,5.4-15.5
					C35.2,16.5,33.3,14.3,31.7,15.4L31.7,15.4z"/>
				<path id="Path_169_" class="st14" d="M13.2,0.2C-0.6,8-3.5,27.9,4,40.9c1.5,2.7,5.4,0.3,4.1-2.4c-6-12.4-1.5-25.8,7.6-35.2
					c0.7-0.7,0.7-1.8,0.1-2.6C15.2,0,14.1-0.2,13.2,0.2L13.2,0.2z"/>
				<path id="Path_170_" class="st14" d="M214.7,127.9c7-6.9,13.2-14.5,18.3-22.8c1.2-1.9-1.9-3.7-3.1-1.8
					c-4.9,8-10.9,15.4-17.7,22.1C210.5,127,213.1,129.5,214.7,127.9L214.7,127.9z"/>
				<path id="Path_171_" class="st15" d="M132,57c-2.2,7-3.2,14-4.7,21.1c-1.3,6.5-3,12.8-4.9,19.1c-3.9,13-9.2,24.9-15.6,36.8
					c-7.7,14.3-16.1,27.9-25.1,41.3c-9.1,13.6-15.9,28.2-13.1,45c3,17.6,15.4,32.3,27.3,44.7c7.1,7.4,17.7-3.6,11.1-11.2
					c-9.1-10.5-19.4-21.6-22.5-35.6s5.2-26.1,12.6-37c16.3-23.7,31.1-49.3,39.6-77c2.1-6.9,3.7-14,4.8-21.1
					c1.4-8.2,2.5-16.3,1.8-24.6C142.8,52.2,134.1,50.5,132,57L132,57z"/>
				<path id="Path_172_" class="st15" d="M133.1,154c7,22,16.2,43.3,27.4,63.6c11.3,20.3,24.5,39.2,38.9,57.5c5,6.3,15.8-2,11.2-8.6
					c-25.5-36.5-49.1-74.1-64.6-115.9c-1.2-3.3-4.5-5.6-8.1-4.6C134.3,146.8,132,150.6,133.1,154L133.1,154z"/>
				<path id="Path_173_" class="st5" d="M109.1,140.4c-4.5,4-8.4,8.7-12.2,13.4c-3.3,4-6.4,8-9.5,12.2c-4.9,6.6-9.3,13.5-14.1,20.3
					c-1,1.5-2.2,2.9-3.2,4.4c-1.3,2-2.4,4.1-3.5,6.2c-1.1,2.2-2.3,4.2-2.7,6.6c-0.4,2.8-0.3,5.6,0.3,8.3c1.1,5.1,2.9,10,4.6,14.9
					c1.6,4.7,3.5,9.2,5.7,13.6c4.3,8.6,10.1,16.7,18.1,22c1,0.7,2,1.3,3.1,1.8c1.2,0.7,2.4-1.1,1.2-1.8c-8.3-4.5-14.5-11.8-19-20
					c-4.7-8.5-8.1-17.8-10.9-27.1c-0.9-2.7-1.4-5.4-1.5-8.2c-0.1-2.6,0.5-5.1,1.7-7.4c1.1-2.1,2.1-4.2,3.3-6.2
					c1-1.6,2.1-3.2,3.2-4.8c4.6-6.3,8.8-13,13.4-19.3c6.1-8.6,12.8-16.8,19.8-24.6c1-1.2,2-2.3,3-3.5
					C110.4,140.7,109.6,139.9,109.1,140.4L109.1,140.4z"/>
				<path id="Path_174_" class="st5" d="M136.3,169.5c-5.5,4-10.3,8.8-15.1,13.5c-4.9,4.9-10.2,9.4-15.8,13.6
					c-3.2,2.4-6.7,4.4-9,7.8c-1.7,2.5-2.6,5.5-2.4,8.5c0.2,7,4.7,12.7,7.7,18.7c4.4,8.6,7.5,17.9,9.2,27.4c0.1,0.6,0.7,1,1.3,0.9
					c0.6-0.1,1-0.7,0.9-1.3c-1.5-8.3-4.1-16.4-7.6-24.1c-1.7-3.7-3.8-7.3-5.8-10.8c-1.6-2.6-2.7-5.4-3.4-8.4
					c-0.6-2.8-0.3-5.8,0.9-8.4c1.7-3.4,4.8-5.5,7.8-7.7c5.7-4.1,11.1-8.7,16.1-13.7c5.3-5.2,10.5-10.4,15.9-15.4
					c0.2-0.2,0.2-0.5,0-0.7C136.8,169.3,136.4,169.3,136.3,169.5L136.3,169.5z"/>
				<path id="Path_175_" class="st5" d="M95.2,267.2c0.6,0.2,1.1,0.3,1.7,0.3c0.6,0,1.2,0,1.8,0c1.3-0.1,2.6-0.4,3.8-0.9
					c1.2-0.5,2.4-1.1,3.5-1.8c1.1-0.7,2.2-1.6,3-2.7c0.3-0.5-0.2-1.3-0.7-1c-1,0.7-1.9,1.5-2.9,2.2c-1,0.7-2.1,1.3-3.3,1.7
					c-1.1,0.4-2.3,0.8-3.4,1c-0.6,0.1-1.1,0.2-1.7,0.3c-0.6,0.1-1.2,0.3-1.8,0.3C94.9,266.8,95,267.2,95.2,267.2L95.2,267.2z"/>
				<path id="Path_176_" class="st5" d="M124.2,147.4c5.1,8.7,9.7,17.7,13.8,26.9c4.1,9.3,7.9,18.7,12.2,27.9s9,18.1,14.8,26.4
					c6.4,9.1,13.8,17.4,20.9,25.9c7.5,9.1,15,18.2,22.9,27c0.2,0.1,0.4,0.1,0.6,0c0.2-0.2,0.2-0.4,0.1-0.6
					c-6.5-8.3-13-16.5-19.7-24.7c-6.9-8.5-14.2-16.6-20.7-25.4c-6.1-8.3-11.4-17.3-15.8-26.7c-4.3-9.1-8.1-18.4-12.2-27.5
					c-4.6-10.3-9.4-20.6-16.1-29.7C124.7,146.5,123.9,146.9,124.2,147.4L124.2,147.4z"/>
				<path id="Path_177_" class="st5" d="M179.2,151.6c4.6,16.5,9.3,32.9,14.6,49.1c5.3,16.2,11.1,32.3,17.9,48
					c3.8,8.8,7.8,17.6,12.5,26c0.4,0.8,1.7,0.2,1.3-0.6c-3.8-7.7-7.5-15.3-10.9-23.1c-3.4-7.8-6.6-15.7-9.6-23.7
					c-6-16-11.2-32.2-16.3-48.5c-2.8-9.1-5.7-18.3-8.6-27.4C180,150.8,179.1,151.1,179.2,151.6L179.2,151.6z"/>
				<path id="Path_178_" class="st5" d="M208,282.7c3.6-0.2,7.2-0.6,10.8-1.4c1.7-0.4,3.4-0.8,5.1-1.2c1.7-0.5,3.5-0.8,4.8-1.8
					c0.2-0.2,0.3-0.4,0.1-0.6c-0.1-0.2-0.4-0.4-0.6-0.3c-1.7,0.1-3.4,0.9-5,1.4c-1.6,0.5-3.3,0.9-5,1.3c-3.4,0.7-6.9,1.3-10.3,1.7
					C207,281.6,207.2,282.7,208,282.7L208,282.7z"/>
				<path id="Path_179_" class="st5" d="M149.2,53.8c3.1,2.5,7,3.7,10.6,5.2c3.6,1.5,7,3.5,10.1,5.9c3.1,2.5,6.1,5.1,8.8,8
					c2.9,2.9,5.8,5.9,8.6,9c3.2,3.5,6.3,7,9.3,10.6c0.4,0.5,1.1,0.5,1.5,0.1s0.5-1.1,0.1-1.5c-5.3-6.6-11-12.9-17-18.8
					c-5.7-5.6-11.6-11.2-19.1-14.4c-2-0.9-4.1-1.6-6.2-2.3c-2.1-0.7-4.3-1.7-6.5-2.6C149.1,52.7,148.8,53.5,149.2,53.8L149.2,53.8z"
					/>
				<path id="Path_180_" class="st5" d="M172.7,97.6c0.2,2.5,0.4,5,0.8,7.5c0.5,3.5,0.9,7,1.4,10.4c0.9,6.8,1.9,13.6,2.7,20.4
					c0.5,4,1.4,8.6-0.5,12.3c-0.7,1.2,1,2.4,1.6,1.2c2.1-3.7,1.5-8.2,1-12.3c-0.4-2.9-0.8-5.8-1.2-8.7c-1-7.4-2.1-14.8-3.4-22.2
					c-0.5-3-1.1-5.9-1.8-8.8c0-0.2-0.2-0.4-0.4-0.3C172.8,97.1,172.7,97.4,172.7,97.6L172.7,97.6z"/>
				<path id="Path_181_" class="st5" d="M177.7,147.8c-2.4-0.5-4.8-0.7-7.2-1l-7.1-0.9l-14.6-2c-9.7-1.3-19.4-2.7-29.1-3.9l-8.1-1
					c-2.7-0.3-5.5-0.9-8.2-0.9c-0.9,0-1.3,1.3-0.3,1.5c2.4,0.4,4.8,0.7,7.2,0.9c2.4,0.3,4.7,0.6,7.1,0.9c4.9,0.6,9.7,1.2,14.6,1.9
					c9.7,1.3,19.4,2.6,29.1,3.8c2.7,0.3,5.4,0.7,8.1,1c2.7,0.4,5.5,0.7,8.2,0.8C178.1,148.9,178.4,147.9,177.7,147.8L177.7,147.8z"
					/>
				<path id="Path_182_" class="st5" d="M106,138.7c0.8-11.2,3.8-22.1,7.2-32.7c3.6-11,7.6-21.9,10.7-33.1c1.7-5.9,2.9-12,3.6-18.2
					c0-0.5-0.3-0.8-0.8-0.9c-0.4,0-0.8,0.3-0.9,0.7c-1.2,11.2-4.5,22.1-8,32.7c-3.7,10.9-7.7,21.8-10.3,33c-1.5,5.9-2.4,12-2.6,18.2
					c0.1,0.3,0.3,0.5,0.6,0.6C105.6,139.2,105.9,139,106,138.7L106,138.7z"/>
				<path id="Path_183_" class="st5" d="M85.9,68.3c-2.4,4.5-4.2,9.2-5.5,14.1c-1.3,4.9-2.2,9.9-2.7,15c0,0.3,0.2,0.6,0.5,0.7
					s0.6,0,0.8-0.2c10.1-11.5,21.5-21.7,34.1-30.2c3.5-2.4,7.3-4.5,10.8-7c0.7-0.5,0-1.6-0.8-1.3c-3.4,1.7-6.7,3.8-9.9,6
					c-3.1,2.1-6.2,4.3-9.2,6.7c-6.1,4.7-11.9,9.9-17.3,15.4c-3,3.1-6,6.3-8.8,9.6l1.3,0.5c0.4-5,1.3-10,2.6-14.8c1.4-4.8,3-9.4,5-14
					C86.9,68.2,86.2,67.8,85.9,68.3L85.9,68.3z"/>
				<path id="Path_184_" class="st5" d="M128,51.8c3.4-1.7,7-2.6,10.8-2.7c1.8-0.1,3.6,0.1,5.4,0.5c0.9,0.2,1.8,0.4,2.6,0.7
					c0.9,0.4,1.7,0.7,2.6,0.9c0.7,0.1,0.9-0.9,0.5-1.3c-0.8-0.5-1.7-0.9-2.6-1.1c-0.9-0.3-1.9-0.6-2.9-0.7c-1.9-0.4-3.9-0.5-5.8-0.4
					c-3.9,0.1-7.7,1.4-11,3.5C127.2,51.3,127.6,51.9,128,51.8L128,51.8z"/>
				<path id="Path_185_" class="st5" d="M120,17.6c-2.3,7-2.9,14.4-1.7,21.7c0.4,2.7,1.1,5.7,3.2,7.7c2.4,2.3,5.7,1.7,8.5,0.7
					c1.8-0.6,3.5-1.4,5.2-2.2c1.8-0.8,3.5-1.9,5-3.2c0.5-0.5,0-1.5-0.7-1.2c-1.4,0.7-2.6,1.6-3.9,2.3c-1.3,0.7-2.7,1.4-4.1,2
					c-2.6,1-6.1,2.6-8.5,0.6c-1.9-1.6-2.5-4.4-2.9-6.8c-0.6-3.3-0.8-6.7-0.6-10.1c0.2-3.8,0.7-7.5,1.7-11.2
					C121.1,17.3,120.2,17,120,17.6L120,17.6z"/>
				<path id="Path_186_" class="st5" d="M121.5,14.2c2.2-0.8,4.3-2,6.4-2.9c2.2-0.9,4.5-1.6,6.8-2.1c4.3-0.8,8.8-0.2,12.4,2.5
					c3.2,2.3,5.4,5.6,7,9.1c1.8,4,3.1,8.6,2.9,13s-2.2,9.2-6.6,11c-1,0.4-0.3,1.9,0.7,1.5c3.9-1.6,6.4-5.5,7.2-9.6
					c1-4.9-0.2-10.2-2.1-14.8c-1.4-4-3.8-7.5-6.9-10.4c-3.4-3-7.9-4.4-12.4-3.9c-2.7,0.3-5.4,1-8,2.1c-2.8,1-5.4,2.3-7.9,3.9
					C120.7,13.8,121.1,14.4,121.5,14.2L121.5,14.2z"/>
				<path id="Path_187_" class="st5" d="M154.4,47.1c-1.7-5.5-4-11.9-9.6-14.6c-3-1.5-6.4-1.4-9.7-1.4c-3.3,0-6.8-0.1-9.3-2.5
					c-1.3-1.3-2.2-2.8-2.8-4.5c-0.7-1.7-0.9-3.6-1.6-5.3c-0.4-0.9-1.5-0.4-1.5,0.5c0.2,1.6,0.6,3.2,1.3,4.8c0.5,1.5,1.2,2.8,2,4.1
					c1.9,2.6,4.8,4.2,8,4.4c3.4,0.4,6.8-0.2,10.1,0.4c3.2,0.5,5.6,2.4,7.6,4.9c2.2,2.8,3.6,6.2,4.9,9.5
					C153.9,47.6,154.4,47.5,154.4,47.1L154.4,47.1z"/>
				<path id="Path_188_" class="st5" d="M100.5,266.8c0,0.1-0.1,0.3-0.1,0.5c0,0.2,0.1,0.3,0.2,0.5c0.1,0.3,0.3,0.6,0.5,0.9
					c0.3,0.6,0.6,1.2,1,1.8s0.8,1.2,1.2,1.8c0.3,0.6,0.8,1.2,1.5,1.6c0.2,0.2,0.6,0.2,0.9,0c0.3-0.2,0.4-0.5,0.3-0.7
					c-0.2-0.7-0.6-1.3-1.1-1.9c-0.4-0.5-0.8-1-1.1-1.6c-0.4-0.5-0.8-1.1-1.2-1.6c-0.2-0.3-0.4-0.6-0.6-0.9c-0.2-0.3-0.5-0.5-0.9-0.6
					l0.2,0.1l-0.1-0.1C100.8,266.4,100.4,266.5,100.5,266.8L100.5,266.8z"/>
				<path id="Path_189_" class="st5" d="M109,263.7c0,1.4,0.4,2.8,1.1,4c0.4,0.6,0.8,1.2,1.3,1.7c0.5,0.6,1.2,1.1,1.9,1.4
					c0.3,0.1,0.7,0,0.9-0.3c0.2-0.3,0.2-0.7,0-0.9c-0.3-0.3-0.5-0.5-0.8-0.7c-0.2-0.2-0.4-0.3-0.6-0.5c-0.5-0.4-0.9-0.9-1.3-1.4
					c-0.7-1-1.2-2.1-1.6-3.3c-0.1-0.2-0.3-0.3-0.5-0.3C109.2,263.3,109.1,263.5,109,263.7L109,263.7z"/>
				<path id="Path_190_" class="st5" d="M103.9,275c-3.4,1.6-6.6,3.6-9.8,5.5c-3.2,1.9-6.4,3.7-9.6,5.6c-2.2,1.4-5.5,2.8-5.7,5.7
					c-0.1,2.8,2.8,4.6,5.4,4.8c3.3,0.1,6.7-1.4,9.7-2.6c3.2-1.2,6.2-2.6,9.4-3.9c3.1-1.3,6.2-2.4,9.5-3.2c2.6-0.6,5.6-1,7.5-3.1
					c2.3-2.4,1.9-6,0.9-8.9c-0.9-2.5-2.8-5.5-6-5.3c-0.7,0.1-0.9,1.2-0.1,1.4c2.4,0.5,3.6,2.4,4.3,4.5c0.7,2.2,1.2,5.2-0.6,7
					c-1.8,1.9-4.5,2-6.7,2.5c-2.9,0.7-5.7,1.6-8.4,2.8c-5.4,2.2-10.7,5-16.3,6.6c-2.2,0.6-6.3,0.9-6.8-2c-0.5-2.5,3.5-4.1,5.2-5.1
					c3.1-1.9,6.3-3.7,9.4-5.6s6.3-3.7,9.3-5.8c0.2-0.2,0.3-0.5,0.1-0.7C104.4,275.1,104.1,275,103.9,275L103.9,275z"/>
				<path id="Path_191_" class="st5" d="M106.2,274c1.5,0.2,2.9,0,4.3-0.6c1.4-0.5,2.7-1.4,3.8-2.5c0.1-0.3,0.1-0.6-0.1-0.9
					s-0.5-0.3-0.7-0.2c-2.2,1.8-4.7,2.9-7.4,3.1C105.6,272.9,105.7,273.9,106.2,274L106.2,274z"/>
				<path id="Path_192_" class="st5" d="M221.4,280c1.2,1.4,2.2,2.9,2.9,4.6c0.4,0.8,0.6,1.7,0.9,2.5c0.2,0.9,0.3,1.8,0.5,2.7
					c0,0.2,0.3,0.4,0.5,0.4c0.2,0,0.4-0.2,0.5-0.4c0.2-1.9-0.5-3.9-1.3-5.6c-0.8-1.8-2-3.3-3.4-4.6
					C221.6,279.2,221.1,279.7,221.4,280L221.4,280z"/>
				<path id="Path_193_" class="st5" d="M212.7,282c0.4,3.4,2.7,6.4,6.2,8.1c0.4,0.2,0.9,0.1,1.2-0.2c0.3-0.3,0.2-0.8-0.2-1
					c-3-1.7-5.2-4.2-6.3-7.1c-0.1-0.2-0.3-0.3-0.5-0.3C212.8,281.6,212.7,281.8,212.7,282L212.7,282z"/>
				<path id="Path_194_" class="st5" d="M228,290.2c-1.1,1.3-2.9,1.8-4.5,1.2c-0.8-0.4-1.6-0.9-2.2-1.5c-0.9-0.7-2-1.2-3-0.4
					c-0.2,0.2-0.3,0.5-0.2,0.8c0.1,0.3,0.3,0.5,0.6,0.5c1,0.1,1.6,0.8,2.4,1.4c0.8,0.7,1.8,1.1,2.8,1.2c2,0.2,3.9-0.8,5-2.6
					c0.1-0.3,0.1-0.6-0.2-0.7C228.4,290,228.1,290,228,290.2L228,290.2z"/>
				<path id="Path_195_" class="st5" d="M229.7,291.9c-1.8,2,0.3,4.5-0.6,6.7c-1.1,2.7-4.5,3-7,3.2c-6.5,0.4-13,0.5-19.4,0.4
					c-3.3,0-6.5-0.2-9.8-0.3c-1.6-0.1-3.3-0.2-4.9-0.3l-1-0.1c-0.4,0-0.8,0-1.2-0.1c-0.4-0.3-0.3-1.3-0.1-1.7c0.8-2.8,4-3.5,6.4-4.1
					c2.7-0.6,5.3-1,8-1.6c5.8-1.1,11.8-2.6,16.6-6.3c1-0.8-0.2-2.3-1.3-1.5c-4.8,3.5-10.6,4.9-16.3,6c-2.9,0.5-5.8,1-8.7,1.7
					c-2.7,0.7-5.5,2-6.6,4.8c-0.4,1.2-0.6,2.8,0.1,3.8c0.9,1.3,2.8,1,4.1,1.1c3.5,0.3,7.1,0.4,10.6,0.6c7,0.2,14,0.1,21-0.2
					c3.3-0.2,7.2,0,9.7-2.6c1-1,1.6-2.4,1.6-3.9c-0.1-1.5-1.4-3.3-0.7-4.8C230.5,292.1,230,291.5,229.7,291.9L229.7,291.9z"/>
				<path id="Path_196_" class="st5" d="M86.3,67.1C86,67,85.7,67,85.3,66.9l-0.9-0.1c-0.5,0-1.1-0.1-1.6-0.1
					c-1.2-0.1-2.5-0.3-3.7-0.7c-1.1-0.3-2.3-0.7-3.3-1.2c-0.5-0.2-1.1-0.5-1.6-0.8c-0.5-0.3-0.9-0.6-1.5-0.4
					c-0.2,0.1-0.4,0.4-0.3,0.6c0.2,0.7,0.6,0.8,1.1,1.1s1.2,0.6,1.8,0.9c1.2,0.5,2.4,0.9,3.6,1.1c1.2,0.3,2.5,0.4,3.7,0.5
					c0.6,0,1.3,0,1.9-0.1c0.3,0,0.6-0.1,0.9-0.1c0.3-0.1,0.5-0.2,0.8-0.4C86.4,67.3,86.4,67.2,86.3,67.1L86.3,67.1z"/>
				<path id="Path_197_" class="st5" d="M73.9,66.9c-2,1.3-3.4,2.9-4.2,4.8c-0.2,0.5-0.3,0.9-0.5,1.4c-0.2,0.5-0.2,1-0.2,1.4
					c0.1,0.5,0.5,0.8,1.1,0.9c0.5,0.1,1-0.2,1.1-0.6c0.1-0.2,0-0.4-0.3-0.5c-0.2-0.1-0.5,0-0.7,0.1c0.1-0.1,0.1,0,0.1,0
					s-0.1,0-0.1-0.1c0-0.1,0-0.3,0-0.4c0-0.3,0.1-0.7,0.2-1c0.2-0.7,0.5-1.4,0.9-2.1c0.7-1.3,1.7-2.6,2.9-3.7
					C74.7,67,74.2,66.8,73.9,66.9L73.9,66.9z"/>
				<path id="Path_198_" class="st5" d="M69.4,78c-2.2,5.3-3.8,10.8-5,16.5c-0.6,2.8-1,5.6-1.3,8.5c-0.4,2.9-0.6,5.8-0.5,8.7
					c0,0.7,1.2,0.7,1.3-0.1c0.1-1.5,0.1-3,0.1-4.4c0.1-1.4,0.2-2.7,0.3-4.1c0.3-2.8,0.7-5.6,1.2-8.3c1.1-5.6,2.6-11.2,4.7-16.5
					C70.3,77.7,69.6,77.4,69.4,78L69.4,78z"/>
				<path id="Path_199_" class="st5" d="M65,109.9c2.4,1.5,5.6,2.2,8.5,2.7c3.1,0.5,6.3,0.7,9.5,0.6c6.4-0.3,12.7-1.4,18.7-3.4
					c3.5-1,6.9-2.4,10.2-3.9c0.4-0.2,0.5-0.5,0.3-0.9c-0.2-0.3-0.6-0.5-0.9-0.3c-3,1-5.8,2.2-8.8,3.2c-2.9,1-5.9,1.8-9,2.5
					c-5.9,1.3-12.1,1.7-18.2,1c-1.7-0.2-3.5-0.5-5.2-0.9c-1.7-0.4-3.3-1-4.9-1.4C64.9,109.1,64.6,109.6,65,109.9L65,109.9z"/>
				<path id="Path_200_" class="st5" d="M84.5,67.4c-0.2-1.7,1.7-2.4,2.8-3.1c1-0.7,1.9-1.5,2.5-2.6c0.7-1,1.2-2.2,1.5-3.4
					c0.4-1.2,0.5-2.5,0.3-3.7c-0.4-1.2-1.7-1.6-2.7-2.1c-1.2-0.6-2.6-0.9-4-0.8c-2.1,0.2-4.2,1.9-4,4.4c0.3,2.8,3.7,4.3,5.6,2.2
					c0.3-0.3,0.3-0.7,0.1-1c-0.2-0.3-0.7-0.3-1-0.1c-0.7,0.6-1.7,0.8-2.5,0.3c-0.7-0.5-1.1-1.5-0.8-2.4c0.6-2.1,3.3-2.2,4.9-1.6
					c0.5,0.2,1,0.4,1.5,0.6c0.5,0.1,1,0.4,1.4,0.7c0.6,0.7,0.2,2.3,0,3c-0.5,2-1.5,3.7-3,5.1c-1.4,1.3-4.2,2.2-3.7,4.7
					c0.1,0.2,0.3,0.4,0.5,0.4S84.5,67.7,84.5,67.4L84.5,67.4z"/>
				<path id="Path_201_" class="st5" d="M81.9,52c-1.4-1.2-3-2-4.6-2.4c-1.5-0.2-3.1,0.3-4.2,1.5c-2.4,2.4-2.3,6.4-0.3,9
					c0.4,0.6,1.3-0.2,0.8-0.8c-1.7-2.2-1.8-5.6,0.2-7.5c2.4-2.2,5.3-0.6,7.6,1c0.2,0.1,0.4,0,0.5-0.2C82.1,52.5,82.1,52.3,81.9,52
					L81.9,52z"/>
				<path id="Path_202_" class="st5" d="M73.9,52.4c1.9-0.1,3.7,0.7,5.1,2.1l-0.1-0.6c-0.5,1.1-0.9,2.2-1.1,3.4
					c-0.1,1.1,0.2,2.1-0.5,3c-1.5,1.9-3.8,0.7-5.6,0.2c-0.2,0-0.4,0.1-0.4,0.3c-0.1,0.2,0,0.4,0.2,0.6c1.9,1.1,4.7,1.7,6.4,0
					c0.8-0.8,1.2-1.9,1-3.1c0-1.4,0.4-2.8,1-4.1c0.1-0.2,0-0.5-0.2-0.7c-1.6-1.6-3.8-2.2-5.9-1.7c-0.1,0-0.2,0.1-0.2,0.3
					C73.6,52.3,73.7,52.4,73.9,52.4L73.9,52.4z"/>
				<path id="Path_203_" class="st5" d="M89,52.8c1.3-1,2.2-2.6,2.9-4c0.8-1.6,1.4-3.3,1.9-5c0.4-1.6,0.2-3.2-0.6-4.7
					c-0.4-0.7-0.9-1.3-1.5-1.8c-0.6-0.4-1.4-1-2-0.5c-0.2,0.1-0.2,0.4-0.1,0.6c0.2,0.6,1.1,0.7,1.6,1.1c0.5,0.4,0.9,0.9,1.1,1.5
					c0.5,1.3,0.6,2.8,0.2,4.1c-0.9,2.9-2.1,5.7-3.8,8.2c-0.1,0.1-0.1,0.3,0.1,0.4C88.7,52.9,88.9,52.9,89,52.8L89,52.8z"/>
				<path id="Path_204_" class="st5" d="M80.1,35c1.7,0.4,3.4,0.9,5.1,1.3l2.5,0.7c0.8,0.3,1.7,0.5,2.5,0.7c0.2,0,0.4-0.1,0.4-0.3
					c0.1-0.2,0-0.4-0.2-0.5c-0.8-0.4-1.6-0.7-2.5-0.9c-0.9-0.3-1.7-0.5-2.6-0.7c-1.7-0.4-3.5-0.7-5.3-0.9C79.9,34.5,79.8,35,80.1,35
					L80.1,35z"/>
				<path id="Path_205_" class="st5" d="M81.6,34.7c-0.2,2.6-0.9,5.2-2,7.6c-0.9,1.7-2.1,3.2-3.5,4.4c-0.5,0.3-1,0.7-1.4,1.2
					c-0.2,0.3,0.1,0.8,0.4,0.7c0.6-0.2,1.2-0.6,1.7-1c0.5-0.4,1-0.9,1.5-1.4c0.9-1,1.7-2.2,2.3-3.4c1.3-2.4,1.8-5.2,1.5-8
					c0-0.1-0.1-0.2-0.2-0.2S81.6,34.6,81.6,34.7L81.6,34.7z"/>
				<path id="Path_206_" class="st5" d="M75.7,46.9c0.5,0.4,1,0.8,1.5,1.1c0.5,0.3,1.1,0.7,1.7,1c1.1,0.6,2.3,1.2,3.4,1.7
					c0.6,0.3,1-0.7,0.5-1c-1.1-0.7-2.3-1.3-3.4-1.8c-0.6-0.3-1.1-0.6-1.7-0.8s-1.2-0.4-1.8-0.6c-0.1-0.1-0.3,0-0.3,0.1
					C75.5,46.7,75.6,46.8,75.7,46.9L75.7,46.9z"/>
				<path id="Path_207_" class="st5" d="M79.7,35.9c-2.3-0.6-4.2-2.1-6-3.8c-2.1-1.8-4.1-3.7-6.1-5.6c-2-1.9-3.9-3.6-5.8-5.5
					c-1.6-1.5-2.9-3.5-3.7-5.7c-0.2-0.6-0.9-0.2-0.9,0.3c0.2,2.4,1.7,4.4,3.3,6c2,2,4,3.9,6.1,5.8c2.1,1.9,4.3,3.9,6.5,5.8
					c1.9,1.6,3.9,3.3,6.4,3.3C79.9,36.7,80.1,36,79.7,35.9L79.7,35.9z"/>
				<path id="Path_208_" class="st5" d="M51.3,17.1c1.3-0.7,3-1.6,4.3-0.4c1,1,1.3,2.7,1.5,4c0.2,1.7,0.2,3.5,0,5.2
					c-0.2,2.6-0.6,5.1-1.2,7.6c-0.6,2.4-1.5,4.7-2.6,6.9c-0.6,1.1-1.2,2.1-1.9,3.1c-0.7,1.1-1.5,2.2-2.5,3.1c-2.5,2.2-4.8-1.8-5.3-4
					c-0.7-2.7-0.4-5.5,0.1-8.2c0.8-4.8,2.5-9.4,4.9-13.5c0.7-1.5,1.7-2.8,2.9-3.8c0.5-0.4-0.1-1.2-0.7-0.8c-1.1,1-2.1,2.1-2.8,3.5
					c-0.8,1.3-1.6,2.7-2.2,4.2c-1.3,2.9-2.3,6-3,9.2c-0.6,3.1-1,6.3-0.4,9.4c0.5,2.5,2,5.5,4.7,5.9c1.3,0.2,2.3-0.5,3.2-1.5
					c0.9-1.1,1.8-2.3,2.6-3.5c1.5-2.4,2.7-4.9,3.6-7.6C58,31.1,58.6,26,58.1,21c-0.2-1.8-0.7-4-2-5.2c-1.6-1.4-3.7-0.4-5.2,0.8
					c-0.1,0.1-0.1,0.2,0,0.3C51,17,51.1,17.1,51.3,17.1z"/>
				<path id="Path_209_" class="st5" d="M48.8,49.6c4.1-1.4,8.2-2.7,12.5-3.1c2.1-0.2,4.3-0.2,6.4-0.1c2.1,0.2,4.2,0.6,6.3,1
					c0.2,0,0.4-0.1,0.5-0.4c0-0.2-0.1-0.4-0.3-0.5c-2.1-0.6-4.2-1-6.4-1.1c-2.2-0.2-4.4-0.1-6.5,0.1c-4.3,0.4-8.8,1.5-12.6,3.8
					c-0.1,0-0.1,0.1-0.1,0.2S48.7,49.6,48.8,49.6L48.8,49.6z"/>
				<path id="Path_210_" class="st5" d="M57,25.9c-3.4-0.2-6.4,2.2-7.2,5.6c-0.3,1.7-0.1,3.4,0.6,4.9c0.7,1.5,1.9,3.1,3.5,3.5
					c0.2,0,0.4-0.1,0.5-0.2s0.1-0.4-0.1-0.6c-1.1-0.7-2.1-1.8-2.8-3c-0.7-1.3-0.9-2.8-0.6-4.2c0.7-3,3.1-5.2,6-5.4
					C57.3,26.6,57.3,26,57,25.9L57,25.9z"/>
				<path id="Path_211_" class="st5" d="M82.3,61.4l0.7-0.7c0,0,0,0,0-0.1s0-0.1,0-0.1c0,0-0.1,0-0.2,0l-0.7,0.7c0,0,0,0.1,0,0.2
					C82.2,61.4,82.2,61.4,82.3,61.4C82.3,61.4,82.3,61.4,82.3,61.4L82.3,61.4z"/>
				<path id="Path_212_" class="st5" d="M82.2,61.1c-0.6,0.9-1.1,1.9-1.7,2.8c-0.1,0.2-0.2,0.3-0.4,0.5l-0.2,0.2l-0.1,0.1
					c0,0.1,0,0,0,0c-0.1,0.1-0.3,0.2-0.4,0.3l-0.1,0.1l0,0c-0.1,0.1-0.2,0.1-0.3,0.1l-0.2,0.1c-0.1,0,0.2,0,0,0h-0.1
					c-0.2,0-0.4,0.1-0.7,0.1h-0.2h-0.3c-0.3,0-0.6-0.1-0.9-0.1c-0.6-0.1-1.1-0.2-1.6-0.4c-0.4-0.2-0.6-0.5-0.7-0.9
					c-0.1-0.4-0.2-0.8-0.1-1.2c0-0.1,0.1-0.3,0.1-0.4c0-0.1,0.1-0.2,0.1-0.2c0.1-0.2,0.3-0.3,0.4-0.4c0.4-0.2,0.6-0.6,0.4-1
					c-0.2-0.4-0.7-0.5-1.1-0.4c-2.6,1.3-2.1,5.3,0.7,6c1.3,0.4,2.6,0.5,3.9,0.3c1-0.3,1.8-0.8,2.4-1.6c0.8-1.2,1.4-2.4,2-3.6
					C83.3,61.1,82.4,60.6,82.2,61.1L82.2,61.1z"/>
				<path id="Path_213_" class="st5" d="M200,91.6c2.8-3.7,5.5-7.6,8.1-11.5c1.3-1.9,2.6-3.8,3.9-5.7c0.6-1,1.3-1.9,1.9-2.9
					c0.7-0.9,1.3-1.9,1.9-2.9c0.3-0.6-0.6-0.9-1-0.5c-0.7,0.9-1.4,1.9-2,2.8l-1.9,2.9c-1.3,1.9-2.5,3.9-3.8,5.8
					c-2.5,3.9-5.1,7.8-7.4,11.8c-0.1,0.1,0,0.2,0,0.2S200,91.7,200,91.6L200,91.6z"/>
				<path id="Path_214_" class="st5" d="M214.9,68.5c4.7,4.9,11.2,7.4,17.7,7c0.7,0,0.7-1.4-0.1-1.4c-6.2,0.1-12.3-2-17.3-6.1
					C215.1,67.8,214.7,68.2,214.9,68.5L214.9,68.5z"/>
				<path id="Path_215_" class="st5" d="M232.8,75.6c-9,8-16.3,17.7-21.5,28.5c-1.5,3.1-2.9,6.3-4,9.5c0,0.3,0.1,0.6,0.4,0.7
					c0.3,0.1,0.6,0,0.8-0.3c4.1-11.2,10.1-21.5,17.8-30.6c2.2-2.6,4.5-5.1,6.9-7.5C233.3,75.7,233.1,75.4,232.8,75.6L232.8,75.6z"/>
				<path id="Path_216_" class="st5" d="M209.1,112.3c-10.8,0.9-21.5-2.2-29.9-8.7c-2.3-1.8-4.4-3.9-6.2-6.2c-0.6-0.8-1.8,0.2-1.2,1
					c6.8,8.4,17,13.8,28.1,14.8c3.1,0.3,6.2,0.1,9.3-0.4c0.1,0,0.2-0.2,0.2-0.3C209.4,112.4,209.3,112.3,209.1,112.3L209.1,112.3z"
					/>
				<path id="Path_217_" class="st5" d="M220.4,70.4c-0.9-5,0.7-10.1,4.1-13.9c3.7-4.3,9.2-6.6,14.4-8.9l-0.9-0.3
					c0.3,0.9-1.2,1.8-1.8,2.3c-0.8,0.8-1.4,1.6-1.3,2.8c0.1,0.4,0.4,0.6,0.8,0.5c5.7-0.5,11.3,0.7,16.8,1.7c1.1,0.2,2.2,0.4,3.3,0.8
					c0.7,0.3,1.9,1,1.8,2c-0.2,1.1-1.4,1.8-2.3,2.1c-2.9,1.1-6.3,1-9.3,1c-2.8,0-5.7-0.3-8.4,0.3c-2.4,0.5-4.4,1.9-5.6,3.9
					c-1.1,2-2,4.2-2.4,6.4c-0.2,1,1.2,1.5,1.5,0.5c0.5-2.1,1.1-4.3,2.3-6.2c1.2-2,3.4-3.2,5.7-3.4c2.9-0.4,6,0,9-0.1
					c3-0.1,6.6-0.1,9.3-1.8c1.1-0.7,2.1-1.8,2-3.1c-0.2-1.9-2.4-3-4.1-3.4c-3.1-0.8-6.4-1.3-9.6-1.7c-3.3-0.5-6.6-0.6-9.9-0.4
					l0.8,0.5c-0.1-1.1,1.3-1.9,2-2.6c0.8-0.8,1.3-1.7,0.9-2.8c-0.2-0.3-0.5-0.4-0.9-0.3c-5.5,2.4-11.2,5-15.1,9.7
					c-3.3,3.9-5.1,9.5-3.5,14.5C219.9,71,220.4,70.8,220.4,70.4L220.4,70.4z"/>
			</g>
			
				<radialGradient id="Oval-Copy_2_" cx="546.8522" cy="484.0913" r="0.5" gradientTransform="matrix(4.030052e-15 65.8157 205.3595 -1.257464e-14 -99052.9766 -35784.5703)" gradientUnits="userSpaceOnUse">
				<stop  offset="0" style="stop-color:#2793B5"/>
				<stop  offset="1" style="stop-color:#115A7E;stop-opacity:0"/>
			</radialGradient>
			<ellipse id="Oval-Copy" class="st16" cx="359.8" cy="206.9" rx="111.8" ry="32.9"/>
			
				<radialGradient id="Oval-Copy_3_" cx="546.9225" cy="483.9143" r="0.5" gradientTransform="matrix(3.831031e-15 62.5656 195.218 -1.195367e-14 -93347.3125 -33797.1211)" gradientUnits="userSpaceOnUse">
				<stop  offset="0" style="stop-color:#2793B5"/>
				<stop  offset="1" style="stop-color:#115A7E;stop-opacity:0"/>
			</radialGradient>
			<ellipse id="Oval-Copy_1_" class="st17" cx="1121.5" cy="421.4" rx="129.7" ry="31.3"/>
			
				<radialGradient id="Oval-Copy-9_1_" cx="547.7874" cy="481.7343" r="0.5" gradientTransform="matrix(2.382557e-15 38.91 121.408 -7.434085e-15 -58346.8828 -20963.2637)" gradientUnits="userSpaceOnUse">
				<stop  offset="0" style="stop-color:#2793B5"/>
				<stop  offset="1" style="stop-color:#115A7E;stop-opacity:0"/>
			</radialGradient>
			<ellipse id="Oval-Copy-9" class="st18" cx="139.5" cy="351.2" rx="139.5" ry="19.5"/>
		</g>
	</g>
</g>
</svg>
