<?xml version="1.0" encoding="utf-8"?>
<!-- Generator: Adobe Illustrator 26.5.0, SVG Export Plug-In . SVG Version: 6.00 Build 0)  -->
<svg version="1.1" id="Layer_1" xmlns="http://www.w3.org/2000/svg" xmlns:xlink="http://www.w3.org/1999/xlink" x="0px" y="0px"
	 viewBox="0 0 13 18" style="enable-background:new 0 0 13 18;" xml:space="preserve">
<style type="text/css">
	.st0{fill:#000A54;}
</style>
<path id="arrow-down_00000085945055165174821160000013511744349088345776_" class="st0" d="M6.5,3.2l4.1,4.1c0.3,0.3,0.9,0.3,1.3,0
	l0.5-0.5c0.3-0.3,0.3-0.9,0-1.3L7.1,0.3c-0.3-0.3-0.9-0.3-1.3,0L0.6,5.5c-0.3,0.3-0.3,0.9,0,1.3l0.5,0.5c0.3,0.3,0.9,0.3,1.3,0
	c0,0,0,0,0,0L6.5,3.2z"/>
<path id="arrow-down_00000047055884516336028970000005815834200564617870_" class="st0" d="M6.5,13.9L2.4,9.8
	c-0.3-0.3-0.9-0.3-1.3,0l-0.5,0.5c-0.3,0.3-0.3,0.9,0,1.3l5.2,5.2c0.3,0.3,0.9,0.3,1.3,0l5.2-5.2c0.3-0.3,0.3-0.9,0-1.3l-0.5-0.5
	c-0.3-0.3-0.9-0.3-1.3,0c0,0,0,0,0,0L6.5,13.9z"/>
</svg>
