<?xml version="1.0" encoding="utf-8"?>
<!-- Generator: Adobe Illustrator 26.3.1, SVG Export Plug-In . SVG Version: 6.00 Build 0)  -->
<svg version="1.1" id="Layer_1" xmlns="http://www.w3.org/2000/svg" xmlns:xlink="http://www.w3.org/1999/xlink" x="0px" y="0px"
	 viewBox="0 0 218 197" style="enable-background:new 0 0 218 197;" xml:space="preserve">
<style type="text/css">
	.st0{fill:#00A0D4;}
	.st1{fill:#E765A2;}
	.st2{fill:#F08019;}
	.st3{fill:#FFCB00;}
	.st4{fill:#69C888;}
	.st5{fill:#951C3F;}
	.st6{fill:#D44430;}
	.st7{fill:#308044;}
	.st8{fill:#095E80;}
	.st9{fill:#80267B;}
</style>
<path class="st0" d="M103,197l24.1-33.3c8.5-11.8,5.8-28.3-6-36.8c-11.8-8.5-28.3-5.9-36.9,5.9l-40.9,56.7c-1.7,2.4-3,4.9-3.8,7.5
	H103z"/>
<path class="st1" d="M139.6,197h63.5c-0.8-2.8-2.1-5.5-3.9-8l-41.2-56.5c-8.6-11.8-25.1-14.3-36.9-5.7c-11.8,8.6-14.4,25.1-5.8,36.9
	L139.6,197z"/>
<path class="st2" d="M218,71.1c-4.4-0.9-9-0.8-13.6,0.7l-66.5,21.7c-13.9,4.5-21.4,19.4-16.9,33.3c4.5,13.9,19.4,21.4,33.3,16.9
	L218,123V71.1z"/>
<path class="st3" d="M147.4,100.4c0,14.6-11.8,26.4-26.4,26.4l0,0c-14.6,0-26.4-11.8-26.4-26.4V30.5c0-14.6,11.8-26.4,26.4-26.4l0,0
	c14.6,0,26.4,11.8,26.4,26.4V100.4z"/>
<path class="st4" d="M104,93.6c13.9,4.5,21.5,19.3,17.1,33.2l0,0c-4.4,13.9-19.3,21.5-33.2,17.1l-66.6-21.3
	C7.4,118.1-0.3,103.3,4.2,89.4l0,0c4.4-13.9,19.3-21.5,33.2-17.1L104,93.6z"/>
<g>
	<path class="st5" d="M157.9,132.6c-8.6-11.8-25.1-14.3-36.9-5.7c4.5,13.9,19.4,21.4,33.3,16.9l9.5-3.1L157.9,132.6z"/>
	<path class="st6" d="M147.4,100.4v-10l-9.5,3.1c-13.9,4.5-21.4,19.4-16.9,33.3C135.6,126.8,147.4,115,147.4,100.4z"/>
	<path class="st7" d="M104,93.6l-9.3-3v9.8c0,14.6,11.8,26.4,26.4,26.4C125.5,112.9,117.9,98.1,104,93.6z"/>
	<path class="st8" d="M87.9,143.9c13.9,4.5,28.7-3.2,33.2-17.1c-11.8-8.5-28.3-5.9-36.9,5.9l-5.8,8.1L87.9,143.9z"/>
	<path class="st9" d="M115.2,163.7l5.9,8.1l5.9-8.1c8.5-11.8,5.8-28.3-6-36.8C109.2,135.4,106.7,151.9,115.2,163.7z"/>
	<path class="st5" d="M130.6,140c-1.7-5.1-4.9-9.8-9.6-13.2C122.8,132.3,126.3,136.8,130.6,140z"/>
</g>
</svg>
