<?xml version="1.0" encoding="UTF-8"?>
<svg width="31px" height="40px" viewBox="0 0 31 40" version="1.1" xmlns="http://www.w3.org/2000/svg" xmlns:xlink="http://www.w3.org/1999/xlink">
    <title>Ikon_dok_pdf_small</title>
    <g id="Ikon_dok_pdf_small" stroke="none" stroke-width="1" fill="none" fill-rule="evenodd">
        <polygon id="Fill-186" fill="#F8D1E3" points="29.0253 6.5816 29.0253 39.1746 1.0253 39.1746 1.0253 2.1746 24.3533 2.1746"></polygon>
        <g id="Group" fill="#000000">
            <path d="M28.0625,36.6119 C28.0625,37.3449 27.4605,37.9489 26.7245,37.9489 L3.1535,37.9489 C2.4185,37.9489 1.8165,37.3449 1.8165,36.6119 L1.8165,3.5699 C1.8165,2.8349 2.4175,2.2329 3.1535,2.2329 L22.1595,2.2329 C22.8945,2.2329 23.4965,2.8349 23.4965,3.5699 L23.4965,5.2499 C23.4965,5.9849 24.0975,6.5869 24.8335,6.5869 L26.7255,6.5869 C27.4605,6.5869 28.0625,7.1899 28.0625,7.9239 L28.0625,36.6119 Z M25.2135,1.5999 C24.7175,1.1189 23.7475,0.7249 23.0545,0.7249 L1.2815,0.7249 C0.5905,0.7249 0.0255,1.2909 0.0255,1.9819 L0.0255,38.2009 C0.0255,38.8909 0.5905,39.4569 1.2815,39.4569 L28.5975,39.4569 C29.2885,39.4569 29.8535,38.8909 29.8535,38.2009 L29.8535,7.3549 C29.8535,6.6639 29.4475,5.7049 28.9515,5.2229 L25.2135,1.5999 Z" id="Fill-163"></path>
            <path d="M28.2187,38.3814 L26.8827,38.3814 L3.1637,38.3814 C2.4287,38.3814 1.8267,37.7794 1.8267,37.0454 L1.8267,3.8024 C1.8267,3.0674 2.4277,2.4654 3.1637,2.4654 L22.2907,2.4654 C23.0257,2.4654 23.6277,3.0674 23.6277,3.8024 L23.6277,5.5044 C23.6277,6.2394 24.2287,6.8424 24.9647,6.8424 L26.8827,6.8424 C27.6167,6.8424 28.2187,7.4444 28.2187,8.1784 L28.2187,37.0444 L28.2187,38.3814 Z M25.3507,1.8244 C24.8547,1.3444 23.8837,0.9494 23.1927,0.9494 L1.2827,0.9494 C0.5917,0.9494 0.0267,1.5144 0.0267,2.2054 L0.0267,38.6434 C0.0267,39.3334 0.5917,39.8994 1.2827,39.8994 L28.7637,39.8994 C29.4547,39.8994 30.0207,39.3344 30.0207,38.6434 L30.0207,7.6104 C30.0207,6.9184 29.6147,5.9594 29.1197,5.4784 L25.3507,1.8244 Z" id="Fill-185"></path>
        </g>
        <text id="PDF" fill="#000000" fill-rule="nonzero" font-family="Helvetica-Bold, Helvetica" font-size="11" font-weight="bold">
            <tspan x="4" y="25">PDF</tspan>
        </text>
    </g>
</svg>