<?xml version="1.0" encoding="utf-8"?>
<!-- Generator: Adobe Illustrator 19.2.0, SVG Export Plug-In . SVG Version: 6.00 Build 0)  -->
<svg version="1.1" id="Lager_1" xmlns="http://www.w3.org/2000/svg" xmlns:xlink="http://www.w3.org/1999/xlink" x="0px" y="0px"
	 width="101px" height="300px" viewBox="0 0 101 300" style="enable-background:new 0 0 101 300;" xml:space="preserve">
<style type="text/css">
	.st0{fill:#010202;}
	.st1{fill:none;stroke:#010202;stroke-width:2;stroke-miterlimit:10;stroke-dasharray:3,3;}
	.st2{fill:#87D3A0;}
</style>
<g>
	<path class="st0" d="M1.059,1.456c-0.315,0.455-0.332,1.06-0.04,1.531L23.49,39.072c0.231,0.362,0.603,0.6,1.022,0.648
		c0.243,0.034,0.479,0.002,0.7-0.089c0.165-0.068,0.314-0.168,0.44-0.293l11.066-11.237l4.528,3.364
		c0.396,0.294,0.916,0.36,1.372,0.172l0.011-0.005c0.453-0.195,0.773-0.614,0.836-1.107l0.711-9.23l8.435-8.218
		c0.375-0.361,0.515-0.899,0.367-1.399s-0.561-0.876-1.067-0.977L2.481,0.876C2.206,0.82,1.924,0.855,1.672,0.959
		C1.433,1.058,1.215,1.229,1.059,1.456L1.059,1.456z M43.753,19.256c-0.118,0.113-0.187,0.256-0.287,0.387L8.916,3.892l42.026,8.352
		L43.753,19.256z M41.751,29.64L4.001,3.347l38.85,17.703c-0.005,0.002-0.002,0.009-0.007,0.019L41.751,29.64z M5.009,6.099
		l30.675,21.269c-0.286,0.133-0.574,0.302-0.813,0.53l-10.134,9.878L5.009,6.099z"/>
</g>
<path class="st1" d="M48.631,27.324C58,33.746,67.79,38.37,70.847,49.095c1.962,6.884,2.716,14.343,0.511,21.153
	S63.542,83.05,56.484,84.242S41.46,80.689,40.403,73.61c-1.27-8.503,6.951-15.562,15.126-18.226
	c15.272-4.976,32.887,0.114,44.217,11.31"/>
<path class="st2" d="M21.164,300c0,0,6.336-12.751-21.164-25.5c31.5-0.293,73.164,25.5,73.164,25.5H21.164z"/>
</svg>
